<?xml version="1.0" encoding="UTF-8" standalone="no"?>
<svg
   width="969.79639"
   height="969.79639"
   version="1.1"
   id="svg306"
   sodipodi:docname="logo-judoindalo.svg"
   inkscape:version="1.4.2 (ebf0e940d0, 2025-05-08)"
   xmlns:inkscape="http://www.inkscape.org/namespaces/inkscape"
   xmlns:sodipodi="http://sodipodi.sourceforge.net/DTD/sodipodi-0.dtd"
   xmlns:xlink="http://www.w3.org/1999/xlink"
   xmlns="http://www.w3.org/2000/svg"
   xmlns:svg="http://www.w3.org/2000/svg">
  <defs
     id="defs306">
    <linearGradient
       inkscape:collect="always"
       xlink:href="#linearGradient1"
       id="linearGradient2"
       x1="45.179611"
       y1="103.51592"
       x2="45.179611"
       y2="2.4823961"
       gradientUnits="userSpaceOnUse" />
    <linearGradient
       id="linearGradient1"
       inkscape:collect="always">
      <stop
         style="stop-color:#5a44ec;stop-opacity:1;"
         offset="0"
         id="stop1" />
      <stop
         style="stop-color:#0dbbfe;stop-opacity:1"
         offset="0.52092111"
         id="stop3" />
      <stop
         style="stop-color:#5a44ec;stop-opacity:1"
         offset="1"
         id="stop2" />
    </linearGradient>
  </defs>
  <sodipodi:namedview
     id="namedview306"
     pagecolor="#505050"
     bordercolor="#eeeeee"
     borderopacity="1"
     inkscape:showpageshadow="0"
     inkscape:pageopacity="0"
     inkscape:pagecheckerboard="0"
     inkscape:deskcolor="#505050"
     inkscape:zoom="0.4452563"
     inkscape:cx="407.63039"
     inkscape:cy="487.35975"
     inkscape:window-width="1920"
     inkscape:window-height="1008"
     inkscape:window-x="0"
     inkscape:window-y="0"
     inkscape:window-maximized="1"
     inkscape:current-layer="svg306" />
  <g
     id="g2"
     transform="matrix(10.821909,0,0,10.821909,-16.178745,-87.761164)">
    <path
       id="rect1"
       style="fill:url(#linearGradient2);fill-opacity:1;stroke:none;stroke-width:1.7"
       d="M 46.302083,8.1095825 A 44.807251,44.807251 0 0 0 1.4949992,52.916667 44.807251,44.807251 0 0 0 46.302083,97.723751 44.807251,44.807251 0 0 0 91.109167,52.916667 44.807251,44.807251 0 0 0 46.302083,8.1095825 Z" />
    <g
       id="g1"
       transform="matrix(0.23639014,0,0,0.23639014,5.4768375,24.127519)">
      <path
         style="fill:#000000;stroke:none;stroke-width:0.264583"
         d="m 166.5237,-37.302044 c -1.93728,0.254344 -3.88223,0.01257 -5.82084,0.197221 -8.55318,0.814652 -17.32174,2.075444 -25.66458,4.160652 C 102.13258,-24.71973 72.630481,-6.5297853 50.547562,19.230048 38.830225,32.898423 29.862173,49.267135 23.536515,66.037749 11.516759,97.904959 10.292002,133.39802 19.832348,166.05025 c 1.742546,5.96424 3.572669,12.00388 6.022181,17.72708 2.609321,6.09679 5.766594,11.98272 9.059863,17.72708 4.540514,7.92004 9.675548,15.78055 15.63317,22.73036 16.788342,19.58446 38.297114,35.43829 62.265718,45.1485 22.36338,9.05933 47.42233,12.85346 71.4375,11.20775 4.30768,-0.29369 8.68865,-1.03188 12.96458,-1.64042 32.76071,-4.64344 63.92334,-20.93648 87.55327,-43.88908 6.72836,-6.53521 12.60211,-13.97265 17.9414,-21.65086 6.46906,-9.29984 12.18935,-19.20028 16.65287,-29.63333 5.66209,-13.22599 9.15988,-27.57408 11.01196,-41.80417 0.94456,-7.25143 1.68804,-14.64177 1.51077,-21.96041 C 331.38292,99.587709 327.43534,78.546191 319.3629,59.687749 311.98632,42.450939 301.53792,26.547629 288.78501,12.8565 287.42769,11.398646 286.19738,9.7920958 284.76863,8.4035625 265.41701,-10.394025 241.64684,-24.05306 215.7362,-31.440412 c -11.50567,-3.28041 -23.51829,-5.197025 -35.45417,-5.719736 -4.4921,-0.196717 -9.27074,-0.73107 -13.75833,-0.141896 z"
         id="path2" />
      <path
         style="fill:#cdcdcd;stroke:none;stroke-width:0.264583"
         d="m 186.89661,-37.414333 0.26459,0.264584 z"
         id="path3" />
      <path
         style="fill:#cbcbcb;stroke:none;stroke-width:0.264583"
         d="m 191.12995,-37.149749 0.26458,0.264583 z"
         id="path4" />
      <path
         style="fill:#ffffff;stroke:none;stroke-width:0.264583"
         d="m 166.5237,-30.158294 c -1.93728,0.254344 -3.88223,0.01199 -5.82084,0.197221 -8.29283,0.792453 -16.76902,1.958869 -24.87083,3.934222 -17.13442,4.177585 -33.27082,11.763295 -47.889583,21.5089574 C 81.972124,-0.53750199 76.064772,3.6003167 70.768343,8.471825 58.282127,19.956594 47.540837,33.472039 39.269433,48.310666 c -1.474787,2.646098 -2.687902,5.488781 -4.04442,8.202083 -3.40069,6.801379 -5.883805,13.903061 -8.062648,21.166667 -7.773458,25.914874 -8.820944,53.802754 -2.392098,80.168744 3.137164,12.8659 8.145462,25.36138 14.353646,37.04167 1.549929,2.91624 3.502554,5.66235 5.245893,8.46667 11.205633,18.02606 26.217562,33.05704 43.837225,44.80189 3.883289,2.59027 7.793302,5.28902 11.906249,7.50359 18.55444,9.99331 39.80127,16.34331 60.85417,17.78529 12.2121,0.83608 24.41045,0.0767 36.5125,-1.64042 10.60688,-1.50283 21.0132,-4.69371 30.95625,-8.6016 28.63585,-11.25273 54.5412,-31.46161 71.29197,-57.4675 12.78202,-19.8419 20.93119,-42.20263 23.73577,-65.61667 0.79375,-6.64421 1.44198,-13.40908 1.27794,-20.10833 -0.51064,-20.768735 -4.81012,-41.213353 -13.05189,-60.325001 -17.69798,-41.042695 -54.87723,-72.084934 -97.54129,-84.248994 -11.03789,-3.14706 -22.40413,-4.953185 -33.86667,-5.455153 -4.4921,-0.196717 -9.27074,-0.73107 -13.75833,-0.141896 z"
         id="path5" />
      <path
         style="fill:#cbcbcb;stroke:none;stroke-width:0.264583"
         d="m 140.32995,-26.301833 0.26458,0.264583 z"
         id="path6" />
      <path
         style="fill:#000000;stroke:none;stroke-width:0.264583"
         d="m 27.617448,117.6315 c 5.409935,0.79534 10.918296,0.52917 16.404167,0.52917 2.233877,0 4.675981,-0.27438 6.879166,0.12303 3.861858,0.69612 6.615377,3.38084 7.14375,7.2853 0.628121,-1.60893 -0.12409,-4.04363 0.04498,-5.82083 0.506148,-5.32025 0.848519,-10.56244 1.614223,-15.875 1.83515,-12.736517 6.100763,-24.991223 12.282752,-36.247921 2.04126,-3.716602 3.929592,-7.602802 6.695546,-10.847916 1.657085,4.118504 4.519877,8.260291 8.466666,10.447072 3.988329,2.2098 8.538898,2.64848 12.964582,3.091392 4.53919,0.45429 8.74448,0.72099 13.22917,-0.372533 3.85418,-0.9398 6.80005,-3.562086 9.525,-6.286765 3.55785,-3.557587 6.82625,-7.447227 10.58333,-10.801879 7.33107,-6.546321 17.28602,-10.66747 26.72292,-13.038402 13.26911,-3.333485 29.16184,-3.822964 41.80416,2.115344 11.56388,5.431631 20.98411,15.557235 34.13125,17.491604 -1.22237,0.361685 -2.44475,0.189706 -3.70416,0.309562 -2.27542,0.21643 -4.62492,0.693738 -6.61459,1.896005 -7.54512,4.56221 -10.9339,14.239345 -7.03791,22.400683 0.97895,2.047345 2.54529,3.707606 4.1275,5.291666 -7.28372,-3.290358 -14.22956,-6.816989 -21.96042,-9.033139 -1.92432,-0.551656 -3.83064,-1.281906 -5.82083,-1.550194 -0.36989,-8.615627 -4.50401,-17.041812 -12.7,-20.765029 -3.08161,-1.39991 -6.91886,-2.386806 -10.31875,-2.243402 -10.95984,0.462492 -21.43125,9.221258 -21.43125,20.627181 -0.19103,-0.639762 -0.25083,-1.183217 -0.26459,-1.852083 -15.32572,0 -32.04289,0.8509 -44.45,11.000316 -4.42542,3.620029 -8.362151,7.873471 -9.657551,13.605934 -2.624667,11.615734 4.888441,23.925744 14.684641,29.778064 4.61063,2.75431 10.07824,4.32249 15.34583,5.2488 3.91848,0.68897 7.95946,0.90091 11.90625,1.45124 3.46445,0.48286 6.84821,1.16893 9.19083,4.00341 3.93409,4.75985 1.33086,13.17202 0.0995,18.52057 -3.53033,15.33128 -13.16249,29.08379 -27.28198,36.44318 -4.34049,2.26218 -9.00694,3.63008 -13.75833,4.67942 -3.66316,0.80909 -7.391134,1.86319 -11.112498,2.28229 -1.18745,0.13388 -2.834746,0.77761 -3.96875,0.24025 -2.031207,-0.96256 -3.763698,-3.30544 -5.132917,-5.01598 -2.647421,-3.30808 -5.231342,-6.59421 -7.679267,-10.05416 -9.971616,-14.09409 -16.589374,-30.78771 -18.972212,-47.88959 -0.577056,-4.14125 -1.288521,-8.24547 -1.288521,-12.43541 h -3.704166 c -0.0074,-2.57519 -1.216025,-4.40373 -3.96875,-4.71646 -2.588154,-0.29396 -5.333206,-0.046 -7.9375,-0.046 h -15.08125 c 0,19.00687 3.641196,38.02539 11.000317,55.5625 6.983677,16.64308 16.688593,32.18682 29.480933,44.97916 5.002477,5.00327 10.008922,10.0674 15.610416,14.41715 12.448646,9.66258 27.168205,17.47573 42.068745,22.60335 26.24402,9.03023 55.64929,10.03036 82.55,3.33375 19.96546,-4.96623 39.52346,-14.96218 55.5625,-27.78918 16.48354,-13.18419 29.81061,-30.51466 39.22448,-49.34215 9.58056,-19.16271 14.224,-41.12445 14.74788,-62.44166 0.082,-3.43641 -0.26723,-6.89716 -0.50271,-10.31875 -0.6059,-8.8482 -1.85738,-17.818634 -3.96611,-26.458338 -0.52652,-2.157941 -1.42081,-4.215341 -2.02935,-6.35 C 307.06242,64.728591 300.03509,50.477074 290.9149,37.727333 285.35865,29.95996 279.11449,22.298156 272.09244,15.790729 c -1.49489,-1.384565 -3.20674,-2.53021 -4.76249,-3.844131 -1.9738,-1.665817 -3.75709,-3.4700105 -5.82084,-5.0424293 -22.48164,-17.1354747 -49.4538,-27.3126197 -77.52291,-29.9860757 -4.07591,-0.388196 -8.34073,-0.04493 -12.43542,-0.04493 -3.32952,0 -6.73259,-0.20402 -10.05417,0.02368 -8.20896,0.562716 -16.91454,2.044541 -24.87083,4.139274 C 117.74088,-13.991564 99.156018,-5.0851603 83.709114,6.9070792 81.583981,8.5570208 79.678981,10.479483 77.623697,12.211181 63.756621,23.894652 52.072092,38.693591 43.956262,54.925249 38.964898,64.907714 34.478623,75.269855 31.823794,86.146082 29.321629,96.397628 28.069092,107.11722 27.617448,117.6315 Z"
         id="path7" />
      <path
         style="fill:#181818;stroke:none;stroke-width:0.264583"
         d="m 115.90017,-19.863727 c -0.11774,0.11774 0.16166,0.102923 0.17622,0.08837 0.11774,-0.117475 -0.16166,-0.102923 -0.17622,-0.08837 z"
         id="path8" />
      <path
         style="fill:#fbfbfb;stroke:none;stroke-width:0.264583"
         d="M 185.5737,4.3898334 189.80703,4.919 c -0.3728,-4.76197075 1.23402,-9.8745144 2.16958,-14.5520831 0.33867,-1.6935979 0.31671,-3.9973249 1.53459,-5.2916669 -0.69824,-0.186002 -0.97579,0.107157 -1.05834,0.79375 l -1.85208,-0.529166 0.26458,-0.529167 -0.79375,-0.264583 c 0.22754,-0.537898 0.32385,-0.737659 0.79375,-1.058334 -0.44661,-0.714639 -0.44397,-1.084791 0.26459,-1.5875 -0.33788,0.506677 -0.33788,0.287073 0,0.79375 0.24103,-0.364331 0.37147,-0.645583 0.52916,-1.058333 l 1.05834,0.264583 c -0.39106,0.260879 -0.3183,0.264584 -0.79375,0.264584 0.0572,0.648229 0.11535,0.71067 -0.52917,0.79375 0.7456,0.243681 1.4814,-0.30824 2.11667,0 0.63553,-0.476515 1.4224,-0.575205 2.38125,0 l -0.26459,0.264583 c 0.73025,-0.01376 1.397,0.152665 2.11667,0.264583 -1.37001,-1.227137 -3.5216,-1.681691 -5.29167,-2.060839 -0.61224,-0.130969 -1.5867,-0.465402 -2.07036,0.107685 -0.40587,0.481013 -0.40905,1.361546 -0.52335,1.953154 l -0.84587,4.497917 c -1.06574,5.5057144 -1.90447,11.02439351 -3.43958,16.4041664 z"
         id="path9" />
      <path
         style="fill:#fafafa;stroke:none;stroke-width:0.264583"
         d="m 191.65911,-18.364333 -0.52916,1.058333 v -0.79375 c -0.47546,0 -0.40244,0.0037 -0.79375,0.264584 0.14472,0.868098 -0.23469,0.905668 0.52916,1.058333 -0.61277,0.4064 -0.69268,0.610658 -0.79375,1.322917 0.39106,0.260879 0.3183,0.264583 0.79375,0.264583 l -0.26458,0.529167 1.85208,0.529166 c -0.0545,-1.527968 1.63037,-0.507735 2.38125,-0.132291 1.9304,0.9652 3.54807,2.062956 4.45373,4.101041 0.54901,1.2350752 -0.18838,3.1988127 -0.44079,4.4979168 -0.78026,4.0129354 -1.28852,8.1020708 -2.69002,11.9062499 l 4.23333,0.5291666 c -0.37068,-2.9995812 0.5424,-6.05075614 1.11046,-8.9958332 0.94747,-4.9125187 1.75233,-9.7583621 3.12288,-14.5520831 L 200.39036,-17.306 c 0.12647,1.02235 0.18098,1.890184 0,2.910417 -1.23798,-1.405731 -2.82495,-2.513013 -4.7625,-2.38125 -0.15293,-1.026848 -1.46447,-0.783431 -2.11666,-0.264583 -0.58738,-0.433123 -1.41261,0.10742 -2.11667,0.264583 0.39132,-0.260879 0.31829,-0.264583 0.79375,-0.264583 0.05,-0.552186 0.14446,-0.657755 0.52917,-1.058334 z"
         id="path10" />
      <path
         style="fill:#ffffff;stroke:none;stroke-width:0.264583"
         d="m 145.8862,-17.570583 c 1.26656,4.439444 1.95633,8.9431811 2.80749,13.4937498 0.59902,3.20278121 1.5703,6.5354728 1.16126,9.7895832 l 4.23333,-0.5291666 c -1.3843,-4.85139999 -2.18228,-9.8242437 -3.01995,-14.8166665 -0.47043,-2.8053769 -1.3007,-5.6208079 -0.9488,-8.4666669 z"
         id="path11" />
      <path
         style="fill:#cecece;stroke:none;stroke-width:0.264583"
         d="m 197.47995,-16.247666 0.26458,0.264583 z"
         id="path12" />
      <path
         style="fill:#dedede;stroke:none;stroke-width:0.264583"
         d="m 189.98351,-15.101227 c -0.11774,0.11774 0.16166,0.102923 0.17621,0.08837 0.11774,-0.11774 -0.16166,-0.102923 -0.17621,-0.08837 z"
         id="path13" />
      <path
         style="fill:#c6c6c6;stroke:none;stroke-width:0.264583"
         d="m 149.32578,-14.395583 0.26458,0.264583 z"
         id="path14" />
      <path
         style="fill:#e3e3e3;stroke:none;stroke-width:0.264583"
         d="m 147.29722,-13.954523 c -0.0146,0.01455 -0.0294,0.293952 0.0884,0.176213 0.0148,-0.01482 0.0294,-0.293952 -0.0884,-0.176213 z"
         id="path15" />
      <path
         style="fill:#e6e6e6;stroke:none;stroke-width:0.264583"
         d="m 192.10017,-13.77831 c -0.11774,0.117739 0.16166,0.102923 0.17622,0.08837 0.11774,-0.11774 -0.16166,-0.102923 -0.17622,-0.08837 z"
         id="path16" />
      <path
         style="fill:#d2d2d2;stroke:none;stroke-width:0.264583"
         d="m 197.21536,-13.601833 0.26459,0.264583 z"
         id="path17" />
      <path
         style="fill:#e6e6e6;stroke:none;stroke-width:0.264583"
         d="m 200.56684,-13.249144 c -0.11774,0.11774 0.16166,0.102923 0.17621,0.08837 0.11774,-0.117739 -0.16166,-0.102923 -0.17621,-0.08837 z"
         id="path18" />
      <path
         style="fill:#dedede;stroke:none;stroke-width:0.264583"
         d="m 147.65017,-12.19081 c -0.11774,0.117739 0.16166,0.102923 0.17622,0.08837 0.11774,-0.11774 -0.16166,-0.102923 -0.17622,-0.08837 z"
         id="path19" />
      <path
         style="fill:#e7e7e7;stroke:none;stroke-width:0.264583"
         d="m 109.28559,-9.8095602 c -0.11774,0.1177396 0.16166,0.1029229 0.17621,0.088371 0.11774,-0.1177396 -0.16166,-0.1029229 -0.17621,-0.088371 z"
         id="path20" />
      <path
         style="fill:#ffffff;stroke:none;stroke-width:0.264583"
         d="m 236.90286,-4.6059999 c -0.59796,1.0239375 -1.13241,2.0801542 -1.5875,3.175 h 1.05834 c -0.57944,1.97114581 -1.88913,3.7811604 -2.91042,5.5562499 -2.3839,4.1481375 -5.29431,8.284104 -7.14375,12.7 1.91823,0.744273 3.73062,1.685396 5.82083,1.828535 5.08265,0.347927 9.85309,-3.431646 12.88786,-7.120466 1.77006,-2.1492107 3.99256,-6.0909732 2.7596,-8.9849856 -0.55033,-1.2959292 -2.07962,-1.87959999 -3.21204,-2.55137707 -2.55852,-1.51579793 -4.97681,-3.34353953 -7.67292,-4.60295623 m -133.35,2.6458333 c 1.2237,0.4257146 3.70523,0.023283 5.02709,-0.2645833 -0.0476,0.7003521 0.0479,1.1821583 0.26458,1.85208332 0.34766,-0.2032 0.32597,-0.18150416 0.52917,-0.52916666 l 1.32291,0.52916666 -0.26458,1.05833332 c -0.372,-0.36803541 -0.60087,-0.54848124 -1.05833,-0.79374999 -0.26088,0.39131875 -0.26459,0.31829375 -0.26459,0.79374999 -1.29645,-0.63791041 -2.64795,-0.54795208 -3.96875,0 l 0.26459,-0.52916666 c -0.95277,0.15875 -0.75512,-0.18044583 -1.32292,0.52916666 -0.0534,-0.48947916 -0.0534,-0.83343749 0,-1.32291665 -0.65987,0.47942499 -1.38271,1.18639165 -1.85208,1.85208331 l 1.05833,-0.26458333 -0.79375,0.52916663 c 0.3302,0.1812396 0.40958,0.1981729 0.79375,0.2645834 -0.68686,0.4818062 -1.18718,0.8522229 -1.5875,1.5874999 1.515,-0.8064499 3.28851,-2.38998118 5.02708,-2.57466034 2.21218,-0.23521458 3.23533,2.88581034 4.1275,4.42674374 0.41328,0.7141104 0.94933,1.5083895 0.77047,2.3772812 -0.38867,1.8856854 -4.14046,3.3107314 -5.69172,4.1198274 -0.68209,0.355864 -1.35069,0.606954 -2.09206,0.249766 -1.43298,-0.690562 -2.16984,-2.8035247 -2.93502,-4.1010413 -1.327414,0.9839854 -1.868487,1.2091458 -3.439583,0.5291666 0.92075,3.1900817 3.591983,7.5022607 7.408333,7.3069977 1.8841,-0.09631 3.41948,-1.368954 5.02708,-2.212446 1.61634,-0.847725 3.72348,-1.838854 4.61196,-3.5305996 1.63221,-3.1072667 -0.29449,-5.7964916 -1.81293,-8.4431187 -0.90249,-1.57294787 -1.8079,-3.1376937 -3.59278,-3.8197895 -1.95897,-0.7482417 -3.64781,-0.1299104 -5.55625,0.3802062 z"
         id="path21" />
      <path
         style="fill:#fafafa;stroke:none;stroke-width:0.264583"
         d="m 103.28828,2.0085834 -0.79375,-0.5291667 0.79375,-0.2645833 c -0.47863,-0.1518708 -0.54742,-0.1230312 -1.05833,0 l 1.85208,-1.85208331 c -0.12726,0.58234791 -0.12726,0.74056874 0,1.32291665 0.4363,-0.27252083 0.80222,-0.3952875 1.32292,-0.52916666 l -0.26459,0.52916666 c 1.38298,-0.37200416 2.58683,-0.43735624 3.96875,0 l 0.26459,-0.79374999 1.05833,0.79374999 0.26458,-1.05833332 -1.32291,-0.52916666 c -0.32359,0.31617708 -0.37571,0.34845625 -0.79375,0.52916666 V -2.2247499 c -3.98039,0.3331104 -9.173636,1.0130896 -11.290303,5.0273479 -0.685006,1.2991041 -0.964671,3.3485666 -0.348985,4.7373645 0.422804,0.9530291 1.780381,1.778 2.816754,1.2551833 1.545164,-0.7794625 -0.07012,-2.4471312 0.302154,-3.6009791 0.39317,-1.2184063 2.16905,-2.5577271 3.22871,-3.1855833 z"
         id="path22" />
      <path
         style="fill:#e3e3e3;stroke:none;stroke-width:0.264583"
         d="m 189.89514,-1.2545228 c -0.0146,0.014552 -0.0294,0.29395206 0.0884,0.1762125 0.0148,-0.014817 0.0291,-0.2939521 -0.0884,-0.1762125 z"
         id="path23" />
      <path
         style="fill:#e6e6e6;stroke:none;stroke-width:0.264583"
         d="m 108.66805,-0.72535616 c -0.0145,0.0145521 -0.0294,0.29395208 0.0884,0.1762125 0.0148,-0.0148167 0.0294,-0.29395208 -0.0884,-0.1762125 m 131.23254,0 c -0.0132,0.0145521 -0.0291,0.29395208 0.09,0.1762125 0.0132,-0.0145521 0.0291,-0.29395208 -0.09,-0.1762125 m -41.62689,0.61727291 -0.26459,0.52916666 h 0.52917 c 0,-0.49027291 0.0794,-0.3571875 -0.26458,-0.52916666 z"
         id="path24" />
      <path
         style="fill:#000000;stroke:none;stroke-width:0.264583"
         d="m 238.75495,0.15650008 c -2.30453,5.34749372 -6.21771,9.97082292 -8.46667,15.34583292 5.22817,0.970756 9.652,-2.021681 12.78467,-6.0854164 0.99747,-1.2935479 2.64054,-3.738827 1.87325,-5.469202 C 244.4329,2.79175 242.4353,1.9966771 241.40078,1.373848 240.53559,0.85314799 239.74184,0.38271883 238.75495,0.15650008 M 105.93411,0.87061049 c -1.70233,0.54980411 -5.78987,2.60508751 -6.010536,4.58152491 -0.0979,0.8773584 0.405606,1.6531167 0.824706,2.3772813 0.89932,1.5531041 2.07222,4.8775933 4.39208,4.3148253 0.66464,-0.161396 1.26551,-0.58129 1.85209,-0.91493 1.43139,-0.814387 4.42277,-1.8219204 4.69714,-3.6684474 0.17569,-1.1832167 -0.58605,-2.2045083 -1.14538,-3.1710312 -1.07235,-1.8531417 -1.9767,-4.36985832 -4.6101,-3.51922291 z"
         id="path25" />
      <path
         style="fill:#eeeeee;stroke:none;stroke-width:0.264583"
         d="m 110.69661,0.68566674 -0.26458,1.05833336 c 0.45852,-0.3233209 0.56912,-0.5315479 0.79375,-1.05833336 z"
         id="path26" />
      <path
         style="fill:#e3e3e3;stroke:none;stroke-width:0.264583"
         d="m 200.47847,0.86214382 c -0.0145,0.0145521 -0.0294,0.29395208 0.0884,0.17621248 0.0148,-0.014817 0.0294,-0.29395206 -0.0884,-0.17621248 z"
         id="path27" />
      <path
         style="fill:#333333;stroke:none;stroke-width:0.264583"
         d="m 247.4862,0.95025007 0.26458,0.26458333 z"
         id="path28" />
      <path
         style="fill:#d3d3d3;stroke:none;stroke-width:0.264583"
         d="m 103.81745,1.2148334 0.26458,0.2645833 z"
         id="path29" />
      <path
         style="fill:#e3e3e3;stroke:none;stroke-width:0.264583"
         d="m 243.9593,1.3029396 c -0.11906,0.1177396 0.1614,0.102923 0.17462,0.088371 0.11907,-0.1177396 -0.16139,-0.1029229 -0.17462,-0.088371 z"
         id="path30" />
      <path
         style="fill:#e6e6e6;stroke:none;stroke-width:0.264583"
         d="m 198.89097,3.5079771 c -0.0146,0.014552 -0.0294,0.2939521 0.0884,0.1762125 0.0148,-0.014817 0.0294,-0.2939521 -0.0884,-0.1762125 m 47.35962,0 c -0.0132,0.014552 -0.0291,0.2939521 0.09,0.1762125 0.0132,-0.014552 0.0291,-0.2939521 -0.09,-0.1762125 z"
         id="path31" />
      <path
         style="fill:#2f2f2f;stroke:none;stroke-width:0.264583"
         d="M 190.07161,3.8606667 190.3362,4.12525 Z"
         id="path32" />
      <path
         style="fill:#ececec;stroke:none;stroke-width:0.264583"
         d="m 112.5487,4.919 c -0.27411,0.3140604 -0.35428,0.4243917 -0.52917,0.79375 0.48921,-0.2561167 0.7202,-0.301625 0.52917,-0.79375 z"
         id="path33" />
      <path
         style="fill:#c6c6c6;stroke:none;stroke-width:0.264583"
         d="m 151.17786,4.919 0.26459,0.2645834 z"
         id="path34" />
      <path
         style="fill:#1e1e1e;stroke:none;stroke-width:0.264583"
         d="m 271.21138,5.2716896 c -0.11906,0.117475 0.1614,0.1029229 0.17463,0.088371 0.11906,-0.1177396 -0.1614,-0.1029229 -0.17463,-0.088371 z"
         id="path35" />
      <path
         style="fill:#e6e6e6;stroke:none;stroke-width:0.264583"
         d="m 112.90139,5.6246438 c -0.0146,0.014552 -0.0294,0.293952 0.0884,0.1762125 0.0148,-0.014817 0.0294,-0.2939521 -0.0884,-0.1762125 z"
         id="path36" />
      <path
         style="fill:#2f2f2f;stroke:none;stroke-width:0.264583"
         d="m 200.65495,5.9773333 0.26458,0.2645834 -0.26458,-0.2645834 m 43.65625,0 0.26458,0.2645834 z"
         id="path37" />
      <path
         style="fill:#ffffff;stroke:none;stroke-width:0.264583"
         d="m 78.682031,56.777333 c 2.707746,0.02249 5.260975,1.009914 7.9375,1.277673 6.278297,0.628385 12.605014,0.335227 18.520829,-2.075392 15.91099,-6.483085 25.22776,-21.351875 38.1,-31.925418 8.99081,-7.385315 20.76212,-12.976754 32.27917,-14.8634981 4.63074,-0.7585604 9.34535,-0.5675313 14.02292,-0.5675313 -1.04008,-0.4405312 -2.31537,-0.4355041 -3.43959,-0.570177 -2.14021,-0.2563813 -4.19576,-0.4392084 -6.35,-0.492125 -4.61354,-0.1129771 -9.13818,-0.3360209 -13.75833,-0.019579 -15.30033,1.04775 -30.63796,4.5915794 -44.45,11.4985264 -8.25526,4.128294 -15.8369,9.608344 -23.018749,15.353771 -5.354638,4.28334 -10.102057,9.418108 -14.4399,14.710833 -1.88939,2.305579 -4.337315,4.860131 -5.40385,7.672917 z"
         id="path38" />
      <path
         style="fill:#e1e1e1;stroke:none;stroke-width:0.264583"
         d="m 262.74472,7.3883562 c -0.11907,0.117475 0.16139,0.102923 0.17462,0.088371 0.11906,-0.1177396 -0.16139,-0.1029229 -0.17462,-0.088371 z"
         id="path39" />
      <path
         style="fill:#e7e7e7;stroke:none;stroke-width:0.264583"
         d="m 246.34055,7.9175229 c -0.11906,0.1177396 0.1614,0.1029229 0.17462,0.088371 0.11907,-0.117475 -0.16139,-0.1031875 -0.17462,-0.088371 z"
         id="path40" />
      <path
         style="fill:#2f2f2f;stroke:none;stroke-width:0.264583"
         d="m 110.9612,8.094 0.26458,0.2645833 z"
         id="path41" />
      <path
         style="fill:#f5f5f5;stroke:none;stroke-width:0.264583"
         d="m 244.57578,8.88775 0.26458,0.79375 c 0.73025,-0.3267605 0.99748,-0.5931959 1.32292,-1.3229167 -0.57415,0.1227667 -1.04775,0.2923646 -1.5875,0.5291667 z"
         id="path42" />
      <path
         style="fill:#ffffff;stroke:none;stroke-width:0.264583"
         d="m 191.30642,8.7112729 c -0.11774,0.1177396 0.16166,0.1029229 0.17622,0.088371 0.11747,-0.117475 -0.16166,-0.1029229 -0.17622,-0.088371 m 2.20478,0.1764771 0.26458,0.2645833 z"
         id="path43" />
      <path
         style="fill:#f0f0f0;stroke:none;stroke-width:0.264583"
         d="m 99.584114,9.4169166 c 0.327289,0.4365625 0.705646,0.3526896 0,0.5291667 0.662786,0.1690687 0.791636,-0.2066396 1.058336,-0.79375 z"
         id="path44" />
      <path
         style="fill:#343434;stroke:none;stroke-width:0.264583"
         d="m 176.31328,9.6815 0.26458,0.2645833 z"
         id="path45" />
      <path
         style="fill:#2d2d2d;stroke:none;stroke-width:0.264583"
         d="m 199.59661,9.6815 0.26459,0.2645833 z"
         id="path46" />
      <path
         style="fill:#eaeaea;stroke:none;stroke-width:0.264583"
         d="m 230.55286,9.6815 c 0.29898,0.530754 0.49477,0.530754 0.79375,0 z"
         id="path47" />
      <path
         style="fill:#ffffff;stroke:none;stroke-width:0.264583"
         d="m 198.80286,10.210667 0.26459,0.264583 -0.26459,-0.264583 m 0.79375,0.264583 0.26459,0.264583 -0.26459,-0.264583 m 0.79375,0.264583 c 0.46593,0.621242 1.58274,0.923661 2.38125,1.322917 1.4052,0.702469 2.98318,1.70815 4.23334,2.645833 0.71411,0.535517 1.44065,1.046692 2.11666,1.5875 l -0.26458,0.264584 c 1.63301,0.299508 2.69875,2.005541 3.74862,3.174735 0.61145,0.681037 1.27873,1.23481 1.54305,2.116931 l 0.26458,0.264583 0.52917,-0.264583 c 1.08161,2.319867 3.37476,4.212431 4.82864,6.35 3.89731,5.725054 7.69408,11.523133 11.25802,17.4625 1.12184,1.867958 2.30717,3.694112 3.43959,5.55625 0.55562,0.916781 1.2647,1.829329 1.37583,2.910416 l 0.52917,-0.264583 -0.26459,0.79375 c 0.63236,0 0.61913,0.193675 0.52917,0.79375 0.80433,0 1.40758,1.356783 1.32292,2.116667 l 0.52916,-0.264584 -0.26458,0.79375 c 0.63235,0 0.61912,0.193675 0.52917,0.79375 0.63235,0 0.61912,0.193675 0.52916,0.79375 0.71438,0 1.55311,1.381919 2.38125,1.807898 5.87111,3.016779 8.64394,8.508206 9.26042,14.860852 0.17727,1.811073 -0.32544,3.89546 -0.97102,5.55625 -1.57163,4.043098 -4.68313,8.185944 -8.81856,9.96606 -4.75721,2.048404 -10.45634,1.749425 -15.08125,-0.44106 0.75935,1.19671 2.12725,1.953154 3.13002,2.955396 2.5691,2.569898 5.06148,6.468265 4.03225,10.273775 -0.48684,1.79943 -1.61925,3.35571 -2.39977,5.02708 -0.62971,-2.06984 -0.96309,-4.16798 -2.16959,-6.04044 -5.87639,-9.132357 -15.42415,-13.332353 -25.34708,-16.516349 -3.13293,-1.005152 -6.40371,-1.524793 -9.525,-2.578629 -2.52465,10.907713 -15.27837,17.881338 -25.92917,15.470448 -8.71458,-1.9722 -15.42653,-9.556746 -17.19791,-18.116281 -7.36627,0 -14.49335,1.844675 -21.43125,4.212431 -3.52055,1.201738 -7.14904,2.437077 -10.00813,4.960409 -6.10156,5.384535 -5.65521,16.539901 1.27688,21.025111 4.99798,3.23374 11.22362,4.00341 16.93333,5.20436 3.11388,0.65484 6.1677,1.6883 9.26042,2.44342 6.096,1.48881 12.06447,3.47848 18.25625,4.65297 4.37224,0.82947 8.81697,0.87894 13.22916,1.1811 6.01239,0.41195 12.24889,0.50323 18.25625,-0.0685 7.53798,-0.71729 14.62458,-3.03583 21.96042,-4.71752 -2.62599,2.46962 -5.11651,5.30093 -7.94147,7.53322 -4.56433,3.60706 -9.57845,5.80839 -14.8127,8.15975 -2.19472,0.98583 -4.38256,1.89177 -6.61432,2.77786 -0.86201,0.3421 -1.72667,0.88741 -1.7854,1.90605 -0.10954,1.90262 1.91161,4.25159 3.08821,5.55228 2.9726,3.28587 5.74358,6.75323 8.70506,10.05391 5.36839,5.98328 10.60212,12.22772 14.87593,19.05026 4.95829,7.91316 8.72861,16.79443 15.33525,23.54765 3.429,3.50229 7.7179,6.35344 12.16819,8.38518 1.31762,0.60166 3.57452,1.97035 5.02708,1.3507 0.97102,-0.41381 1.8415,-1.29646 2.64584,-1.96083 2.27012,-1.87166 4.27302,-4.10819 6.35,-6.18728 9.34243,-9.34641 16.33008,-20.87854 21.77785,-32.80834 C 294.02111,131.33162 288.87761,86.151109 264.85609,53.625881 255.31786,40.709716 243.06765,30.300214 229.22995,22.269316 220.28174,17.075281 210.58396,12.8438 200.39036,10.739833 Z"
         id="path48" />
      <path
         style="fill:#fafafa;stroke:none;stroke-width:0.264583"
         d="m 106.46328,18.677333 1.85208,3.704167 c 3.4716,-1.335352 6.03568,-4.504531 9.78959,-5.291667 l -1.85209,-3.704166 c -3.28533,1.50442 -6.07298,4.732602 -9.78958,5.291666 z"
         id="path49" />
      <path
         style="fill:#d3d3d3;stroke:none;stroke-width:0.264583"
         d="m 115.19453,14.444 0.26458,0.264583 z"
         id="path50" />
      <path
         style="fill:#e3e3e3;stroke:none;stroke-width:0.264583"
         d="m 229.31726,14.88506 c -0.0132,0.01455 -0.0291,0.293952 0.09,0.176213 0.0132,-0.01455 0.0291,-0.293952 -0.09,-0.176213 z"
         id="path51" />
      <path
         style="fill:#1c1c1c;stroke:none;stroke-width:0.264583"
         d="m 117.92847,15.67881 c -0.0145,0.01455 -0.0294,0.293952 0.0884,0.176213 0.0148,-0.01482 0.0291,-0.293688 -0.0884,-0.176213 z"
         id="path52" />
      <path
         style="fill:#191919;stroke:none;stroke-width:0.264583"
         d="m 207.71059,16.384189 c -0.11774,0.11774 0.16166,0.102923 0.17621,0.08837 0.11774,-0.117739 -0.16166,-0.102923 -0.17621,-0.08837 z"
         id="path53" />
      <path
         style="fill:#e7e7e7;stroke:none;stroke-width:0.264583"
         d="m 215.11892,16.384189 c -0.11774,0.11774 0.16166,0.102923 0.17622,0.08837 0.11773,-0.117739 -0.16167,-0.102923 -0.17622,-0.08837 z"
         id="path54" />
      <path
         style="fill:#e6e6e6;stroke:none;stroke-width:0.264583"
         d="m 234.07976,16.47256 c -0.0132,0.01455 -0.0291,0.293952 0.09,0.176213 0.0132,-0.01482 0.0291,-0.293688 -0.09,-0.176213 z"
         id="path55" />
      <path
         style="fill:#ededed;stroke:none;stroke-width:0.264583"
         d="m 234.7862,17.354417 c -0.14553,0.432593 -0.0953,0.384968 -0.52917,0.529166 0.5371,0.207698 0.73819,0.0087 0.52917,-0.529166 z"
         id="path56" />
      <path
         style="fill:#000000;stroke:none;stroke-width:0.264583"
         d="m 214.41328,21.58775 0.26458,0.264583 z"
         id="path57" />
      <path
         style="fill:#191919;stroke:none;stroke-width:0.264583"
         d="m 279.67805,24.850856 c -0.11906,0.117475 0.16139,0.103188 0.17462,0.08837 0.11907,-0.11774 -0.16139,-0.102923 -0.17462,-0.08837 z"
         id="path58" />
      <path
         style="fill:#ffffff;stroke:none;stroke-width:0.264583"
         d="m 59.102864,36.404416 c 0.805657,0.995892 1.801284,1.74334 2.910417,2.38125 l 0.529167,-1.058333 c 4.272227,3.467364 8.555302,6.965156 12.699999,10.583333 0.43233,-0.4445 0.446882,-0.452173 0.529167,-1.058333 -0.316442,0.158221 -0.258498,0.123296 -0.529167,0.529166 -0.343164,-0.508 -0.473868,-0.612775 -1.058333,-0.79375 l 0.79375,-0.529166 -0.79375,-1.322917 c 0.926571,0.316177 1.68619,0.626269 2.38125,1.322917 0.490273,0.0426 1.225286,0.299773 1.660525,-0.02064 0.446088,-0.328348 0.522023,-1.065212 0.604308,-1.567127 0.252148,-1.539346 0.212196,-3.248554 -0.148166,-4.762235 -0.281252,0.9144 0.01535,1.944687 -0.004,2.910417 -0.02355,1.173956 -0.369623,2.283618 -0.525198,3.439583 -5.03846,-2.909094 -8.713523,-7.945702 -13.758333,-10.847917 0.999067,-1.239573 2.004748,-2.472266 3.013339,-3.703902 0.484453,-0.591873 0.998273,-1.431925 1.772973,-1.667668 1.132417,-0.344753 2.344209,0.706172 3.15013,1.35202 2.251868,1.803665 3.600714,3.955257 5.028141,6.4008 0.268552,-0.30136 0.34634,-0.426508 0.529167,-0.79375 -0.51144,-0.306916 -0.608013,-0.303212 -0.264584,-0.79375 -0.617272,-0.483129 -0.956468,-0.802481 -1.058333,-1.5875 h -0.529167 l 0.264584,-0.529166 c -0.54954,-0.581819 -0.647965,-1.06389 -0.79375,-1.852084 -0.268817,0.301625 -0.34634,0.426244 -0.529167,0.79375 -0.391319,-0.260879 -0.318294,-0.264583 -0.79375,-0.264583 0.128323,-0.752475 0.128323,-1.364192 0,-2.116667 0.313796,0.313796 0.404283,0.4191 0.529167,0.79375 0.316177,-0.15822 0.258498,-0.123295 0.529166,-0.529166 l 0.79375,2.116666 c 0.316178,-0.158221 0.258498,-0.123296 0.529167,-0.529166 0.550069,0.937683 1.419754,1.617398 2.38125,2.116666 -0.672835,-1.352285 -1.600464,-2.617523 -2.656417,-3.700198 -0.8763,-0.898525 -1.864783,-1.772708 -2.899833,-2.484966 -1.598877,-1.100138 -4.226189,-2.033059 -6.061604,-0.961761 -1.101725,0.643202 -1.92405,1.958711 -2.741348,2.913592 -1.6891,1.973263 -3.434291,4.22566 -5.484548,5.820833 z"
         id="path59" />
      <path
         style="fill:#d3d3d3;stroke:none;stroke-width:0.264583"
         d="M 72.067448,28.466916 72.332031,28.7315 Z"
         id="path60" />
      <path
         style="fill:#000000;stroke:none;stroke-width:0.264583"
         d="m 64.394531,35.346083 c 2.178314,2.692929 5.538523,4.77176 8.202083,6.988704 1.703123,1.417373 3.475038,3.31761 5.55625,4.123796 1.078177,-5.226315 -0.366448,-9.685073 -4.132527,-13.558837 -1.115748,-1.147763 -3.035564,-3.139546 -4.839494,-2.750609 -0.79322,0.170921 -1.287198,0.907786 -1.772973,1.494102 -1.015735,1.22555 -2.014537,2.463536 -3.013339,3.702844 z"
         id="path61" />
      <path
         style="fill:#ffffff;stroke:none;stroke-width:0.264583"
         d="m 268.65286,33.494 c 0.76994,0.506148 1.28852,0.340783 2.11667,0 l -0.26458,0.529166 c 0.58208,-0.262996 0.54239,-0.177271 0.52916,-0.79375 0.53975,0.236802 1.01336,0.4064 1.5875,0.529167 l 0.26458,-0.79375 c 0.53446,0.624152 0.84403,1.064683 1.05834,1.852083 -0.91017,0.02805 -1.55046,0.440002 -2.38125,0.79375 1.25148,0.44794 2.69081,-0.341048 3.96875,-0.529166 -0.71702,1.261004 -1.29381,2.6289 -1.85209,3.96875 l 0.79375,0.264583 c 0.18521,0.916252 0.69057,0.9906 1.5875,1.058333 -0.58737,0.7874 -0.889,1.681163 -1.05833,2.645834 1.16417,-1.405467 1.77006,-3.361267 2.49238,-5.027084 1.0795,-2.481791 2.28864,-4.910137 3.32845,-7.408333 -4.13543,0.337873 -8.05391,2.356115 -12.17083,2.910417 z"
         id="path62" />
      <path
         style="fill:#fafafa;stroke:none;stroke-width:0.264583"
         d="m 74.184114,30.848166 c 0.05927,0.714905 0.06456,1.402292 0,2.116667 l 0.79375,0.264583 c 0.260879,-0.391318 0.264583,-0.318293 0.264583,-0.79375 0.323586,0.76835 0.328878,1.392767 1.058334,1.852084 -0.08943,0.442383 -0.142081,0.346604 0.264583,0.529166 0.03651,0.884767 0.274373,1.176602 1.058333,1.5875 -0.40587,0.270669 -0.370945,0.21299 -0.529166,0.529167 0.391054,0.260879 0.318294,0.264583 0.79375,0.264583 -0.372534,1.491721 0.435239,2.338917 0.873654,3.704167 0.385762,1.202267 0.535517,4.448704 -0.539485,5.363369 -0.412221,0.350572 -1.161257,0.184943 -1.657086,0.192881 -0.568325,-0.860161 -1.402292,-1.090083 -2.38125,-1.322917 l 0.79375,1.322917 -0.79375,0.264583 1.058333,1.058333 c 0.316178,-0.15822 0.258498,-0.123295 0.529167,-0.529166 l -0.264583,1.322916 c 0.68871,0.459053 1.438275,1.135063 2.116666,1.5875 0.332582,0.221721 0.549275,0.760678 1.058334,0.529167 0.378883,-0.172244 0.366183,-0.584464 0.529166,-0.79375 0.794015,-1.020762 0.871009,-1.561042 1.322917,-2.645833 0.33655,-0.807773 0.843492,-1.521619 1.058333,-2.38125 0.756973,-3.028421 -0.683683,-6.659033 -1.852083,-8.995833 -0.585523,-1.171046 -2.108729,-2.321984 -3.175,-3.175 -0.220133,-0.176213 -0.417777,0.389731 -0.529167,0.529166 -0.121708,-0.808566 -0.399256,-1.402291 -0.79375,-2.116666 -0.316441,0.158221 -0.258497,0.123296 -0.529166,0.529166 -0.180711,-0.418041 -0.21299,-0.470164 -0.529167,-0.79375 M 259.65703,34.28775 c 0.76994,0.446616 1.30969,0.882914 1.85208,1.5875 -1.88383,0.153723 -3.68829,0.806714 -5.55625,1.058333 0.42069,0.736865 0.89429,1.6764 1.66688,2.105554 1.71185,0.950383 3.91848,-1.106752 5.69648,-0.57785 0.76729,0.228071 1.2991,1.069181 1.78858,1.64756 l 2.94746,3.439319 c 0.68262,0.8001 1.86796,1.822979 2.03729,2.910417 0.27252,1.761596 -1.7436,3.273689 -1.66952,5.027083 0.0423,0.99695 0.99483,1.886479 1.55575,2.645833 1.16152,-1.395941 1.94204,-3.603095 2.64583,-5.291666 l 1.05833,1.852083 c 1.14565,-0.570442 2.13784,-1.370806 3.175,-2.116667 -0.7276,-0.798512 -1.82562,-1.389591 -2.3151,-2.385218 -0.57415,-1.166019 0.64294,-4.643173 1.52135,-5.552281 -0.85195,-0.448734 -1.40493,-0.694267 -1.85208,-1.5875 -1.20914,0.791897 -1.73037,2.620697 -2.11667,3.96875 -2.09285,-1.505744 -3.60362,-3.886465 -5.29166,-5.820834 1.43669,-0.125148 3.10356,-0.508264 4.42119,-1.104371 0.9525,-0.429683 1.66422,-1.167606 2.72256,-1.276879 -0.13494,-0.884766 -0.37042,-1.282435 -1.05834,-1.852083 -0.26193,0.391319 -0.26458,0.318294 -0.26458,0.79375 l -1.5875,-0.529167 c -0.0609,0.561182 -0.0397,0.500063 -0.52916,0.79375 L 270.76953,33.494 c -1.07686,0.289454 -2.10079,0.186795 -3.175,0.401637 -0.91546,0.182563 -1.97908,0.76835 -2.90513,0.360892 -0.96043,-0.421217 -1.4605,-1.450711 -1.85737,-2.350029 -1.27,0.491331 -2.3204,1.325298 -3.175,2.38125 z"
         id="path63" />
      <path
         style="fill:#e7e7e7;stroke:none;stroke-width:0.264583"
         d="m 262.21555,33.317523 c -0.11906,0.117739 0.1614,0.102922 0.17462,0.08837 0.11907,-0.117739 -0.16139,-0.102923 -0.17462,-0.08837 z"
         id="path64" />
      <path
         style="fill:#000000;stroke:none;stroke-width:0.264583"
         d="m 266.80078,37.198166 c 1.23296,1.971411 3.16706,4.809331 5.29166,5.820834 l 3.43959,-7.9375 c -2.97921,0.25982 -5.7785,1.68222 -8.73125,2.116666 z"
         id="path65" />
      <path
         style="fill:#ffffff;stroke:none;stroke-width:0.264583"
         d="m 78.682031,56.777333 c -3.211513,2.6543 -4.974696,7.542741 -6.99135,11.1125 -6.969919,12.33752 -10.669588,25.99293 -12.587817,39.952087 -0.576527,4.1947 -1.007004,8.46481 -1.057275,12.7 -0.0127,1.05462 -0.03863,2.12275 0.0426,3.17473 0.03916,0.50827 0.227542,1.19036 -0.168804,1.61105 -0.526521,0.55906 -2.087298,0.24156 -2.785269,0.2413 -0.07646,-0.91943 -0.253735,-1.62534 -0.79375,-2.38125 l 0.264584,3.175 h 3.704166 c 0,4.2844 0.698236,8.46534 1.288521,12.7 2.358761,16.92883 8.857192,33.68754 18.782506,47.625 2.455863,3.44884 5.01015,6.75031 7.657306,10.05416 1.385094,1.72853 3.042709,4.014 5.08,5.01941 1.238779,0.61146 2.941638,-0.0593 4.233334,-0.2159 3.819789,-0.46328 7.613647,-1.47875 11.377077,-2.31007 4.75139,-1.04934 9.41785,-2.41724 13.75834,-4.67942 14.03059,-7.31309 23.51114,-20.9513 27.01739,-36.1786 0.93398,-4.05633 1.84203,-8.26347 1.82193,-12.43542 -0.0114,-2.34791 -0.3736,-4.75456 -1.92141,-6.61352 -2.16164,-2.59583 -5.47449,-3.26734 -8.66166,-3.70522 -4.03437,-0.55431 -8.16663,-0.78158 -12.17084,-1.48564 -5.26759,-0.92631 -10.7352,-2.49449 -15.34583,-5.2488 -9.643,-5.76078 -17.559335,-17.96151 -14.94922,-29.513481 1.321858,-5.850202 5.41152,-10.180638 9.92214,-13.870517 12.32879,-10.085387 28.94621,-11.000316 44.18541,-11.000316 v 1.852083 c 0.59796,-1.425046 0.47149,-3.230298 0.97102,-4.7625 1.44516,-4.434152 4.21746,-8.600016 8.02879,-11.365706 9.61204,-6.97521 23.4643,-5.303573 30.83083,4.221956 3.24776,4.199731 4.4749,9.104842 4.88395,14.2875 6.00736,1.243277 12.13908,3.389842 17.72708,5.901796 3.31258,1.489075 6.59871,3.609181 10.05417,4.681537 -1.22503,-1.738048 -2.77548,-3.15251 -3.8444,-5.027083 -1.20597,-2.114285 -1.70815,-5.001683 -1.89045,-7.408333 -0.57282,-7.554913 5.6052,-14.825927 12.61401,-16.765588 2.01084,-0.556683 4.28096,-0.432329 6.35,-0.432329 -1.40494,-0.883708 -3.20146,-1.071298 -4.7625,-1.608402 -3.17235,-1.091935 -6.30502,-2.318014 -9.26041,-3.921389 -6.87917,-3.734329 -12.93786,-9.163579 -20.10834,-12.345723 -12.88573,-5.718704 -28.61177,-5.376862 -42.06875,-1.996017 -9.43689,2.370932 -19.39184,6.492081 -26.72291,13.038402 -3.66395,3.271573 -6.84901,7.06755 -10.31875,10.537296 -1.68487,1.684867 -3.42398,3.638021 -5.55625,4.766469 -5.61314,2.97127 -11.09954,2.62546 -17.19792,2.135452 C 95.110274,69.89167 89.722564,69.123849 85.571516,66.027166 82.377995,63.644593 80.579622,60.170349 78.682031,56.777333 Z"
         id="path66" />
      <path
         style="fill:#e3e3e3;stroke:none;stroke-width:0.264583"
         d="m 64.218054,38.168393 c -0.01455,0.01455 -0.02937,0.293952 0.08837,0.176213 0.01455,-0.01455 0.02937,-0.293952 -0.08837,-0.176213 z"
         id="path67" />
      <path
         style="fill:#e7e7e7;stroke:none;stroke-width:0.264583"
         d="m 65.452864,38.785666 c 0.3302,0.18124 0.40984,0.198173 0.79375,0.264584 -0.3302,-0.18124 -0.409575,-0.198173 -0.79375,-0.264584 z"
         id="path68" />
      <path
         style="fill:#dbdbdb;stroke:none;stroke-width:0.264583"
         d="m 276.41309,38.962143 c -0.0132,0.01455 -0.0291,0.293688 0.09,0.176213 0.0132,-0.01455 0.0291,-0.293952 -0.09,-0.176213 z"
         id="path69" />
      <path
         style="fill:#e6e6e6;stroke:none;stroke-width:0.264583"
         d="m 66.33472,39.49131 c -0.01455,0.01455 -0.02937,0.293952 0.08837,0.176212 0.01482,-0.01482 0.0291,-0.293687 -0.08837,-0.176212 z"
         id="path70" />
      <path
         style="fill:#e5e5e5;stroke:none;stroke-width:0.264583"
         d="m 68.451387,39.49131 c -0.01455,0.01455 -0.02937,0.293952 0.08837,0.176212 0.01482,-0.01482 0.0291,-0.293687 -0.08837,-0.176212 z"
         id="path71" />
      <path
         style="fill:#2c2c2c;stroke:none;stroke-width:0.264583"
         d="M 82.650781,41.166916 82.915364,41.4315 Z"
         id="path72" />
      <path
         style="fill:#cacaca;stroke:none;stroke-width:0.264583"
         d="m 272.88619,43.81275 0.26459,0.264583 z"
         id="path73" />
      <path
         style="fill:#c8c8c8;stroke:none;stroke-width:0.264583"
         d="m 77.623697,49.633583 0.264584,0.264583 z"
         id="path74" />
      <path
         style="fill:#e6e6e6;stroke:none;stroke-width:0.264583"
         d="m 270.85684,50.074643 c -0.0132,0.01455 -0.0291,0.293952 0.09,0.176213 0.0132,-0.01455 0.0291,-0.293952 -0.09,-0.176213 z"
         id="path75" />
      <path
         style="fill:#eeeeee;stroke:none;stroke-width:0.264583"
         d="m 319.18828,56.777333 c 0.10848,0.553508 0.0582,0.534458 0.52916,0.79375 -0.18256,-0.367242 -0.25929,-0.49239 -0.52916,-0.79375 z"
         id="path76" />
      <path
         style="fill:#e2e2e2;stroke:none;stroke-width:0.264583"
         d="m 78.24097,58.805893 c -0.01455,0.01455 -0.02937,0.293952 0.08837,0.176213 0.01455,-0.01455 0.02937,-0.293952 -0.08837,-0.176213 z"
         id="path77" />
      <path
         style="fill:#2f2f2f;stroke:none;stroke-width:0.264583"
         d="m 89.529947,58.629416 0.264584,0.264583 -0.264584,-0.264583 m 5.55625,0 0.264584,0.264583 z"
         id="path78" />
      <path
         style="fill:#e7e7e7;stroke:none;stroke-width:0.264583"
         d="m 229.93638,58.717522 c -0.11906,0.117475 0.1614,0.102923 0.17463,0.08837 0.11906,-0.117739 -0.1614,-0.102923 -0.17463,-0.08837 z"
         id="path79" />
      <path
         style="fill:#111111;stroke:none;stroke-width:0.264583"
         d="m 27.088281,59.158583 v 0.79375 c 0.268552,-0.301361 0.34634,-0.426509 0.529167,-0.79375 z"
         id="path80" />
      <path
         style="fill:#ffffff;stroke:none;stroke-width:0.264583"
         d="m 238.22578,59.952333 0.26458,0.264583 -0.26458,-0.264583 m -65.61667,1.5875 c -0.74956,1.498864 -2.07512,0.868098 -3.43958,1.322916 -0.67733,0.22569 -0.91837,0.817034 -1.32292,1.322917 l -0.26458,-0.264583 c 0.0651,0.561181 0.0611,1.024995 0,1.5875 -2.40533,-1.150938 -4.0042,0.941122 -6.35,1.058333 -0.11695,2.338123 -1.90685,3.868473 -1.32292,6.35 -2.38707,1.075796 -1.6293,3.533775 -3.43958,5.027083 1.44568,1.74334 1.06759,4.465902 3.43958,5.291667 -0.58393,2.481527 1.20597,4.011877 1.32292,6.35 2.40771,0.120385 3.76529,1.938073 6.35,1.322916 v 1.322917 c 0.66622,0 0.71411,0.489214 1.32292,0.79375 1.34302,0.671512 2.84294,0.482071 3.70416,1.852083 1.75102,-1.810544 4.46776,-1.204383 5.29167,-3.96875 2.61091,0.621242 3.94838,-1.188243 6.35,-1.322916 0.12038,-2.407973 1.93807,-3.765286 1.32292,-6.35 2.50216,-0.871009 1.66237,-3.551502 3.43958,-5.027084 -1.50469,-1.814512 -1.08744,-4.232275 -3.43958,-5.291666 0.61515,-2.584715 -1.20254,-3.942027 -1.32292,-6.35 -2.34394,-0.131498 -3.91054,-2.225675 -6.35,-1.058333 -0.71755,-2.982648 -3.22024,-2.354527 -5.29167,-3.96875 z"
         id="path81" />
      <path
         style="fill:#222222;stroke:none;stroke-width:0.264583"
         d="m 245.81138,65.067522 c -0.11906,0.117475 0.1614,0.102923 0.17463,0.08837 0.11906,-0.11774 -0.1614,-0.102923 -0.17463,-0.08837 z"
         id="path82" />
      <path
         style="fill:#ffffff;stroke:none;stroke-width:0.264583"
         d="m 41.640365,66.831499 c -0.563563,1.271323 -1.009386,2.613819 -1.322917,3.96875 2.2098,0.0471 4.305035,1.026584 6.35,1.801284 4.111889,1.557337 8.633883,3.803385 12.964583,4.548716 -0.52361,1.862931 -0.48604,5.077883 -2.392892,6.162675 -1.028964,0.585258 -2.076185,-0.662517 -2.898775,0.187325 -0.391318,-0.260879 -0.318293,-0.264583 -0.79375,-0.264583 l -0.264583,0.529166 c 0.171979,0.343959 0.03889,0.264584 0.529167,0.264584 l -0.529167,0.264583 c 0.266171,0.457994 0.409046,0.807773 0.529167,1.322917 -1.135592,-0.541338 -2.459038,-0.999861 -2.645834,-2.38125 l -1.058333,-0.529167 c 0.16219,0.439473 0.275961,0.65696 0.529167,1.058333 -0.796661,-0.324908 -1.532467,-0.642673 -2.38125,-0.79375 2.590006,2.175934 8.048625,5.547519 11.297708,2.990057 2.162175,-1.702065 2.42226,-4.493684 3.024187,-6.958807 0.324115,-1.328472 0.824178,-2.6162 1.023938,-3.96875 -7.501731,-2.04761 -14.715596,-5.475816 -21.960416,-8.202083 z"
         id="path83" />
      <path
         style="fill:#f5f5f5;stroke:none;stroke-width:0.264583"
         d="m 41.640365,67.625249 c 0.251089,0.679186 0.448204,0.934509 1.058333,1.322917 0.09393,-0.917311 -0.155046,-1.166548 -1.058333,-1.322917 z"
         id="path84" />
      <path
         style="fill:#1c1c1c;stroke:none;stroke-width:0.264583"
         d="m 47.549304,68.595476 c -0.01455,0.01455 -0.02937,0.293952 0.08837,0.176213 0.01455,-0.01482 0.02937,-0.293952 -0.08837,-0.176213 z"
         id="path85" />
      <path
         style="fill:#181818;stroke:none;stroke-width:0.264583"
         d="m 303.40059,69.389226 c -0.0132,0.01482 -0.0291,0.293688 0.09,0.176213 0.0132,-0.01455 0.0291,-0.293952 -0.09,-0.176213 z"
         id="path86" />
      <path
         style="fill:#d9ffff;stroke:none;stroke-width:0.264583"
         d="m 173.93203,69.477333 v 0.529166 h 0.52917 v -0.529166 z"
         id="path87" />
      <path
         style="fill:#ffffff;stroke:none;stroke-width:0.264583"
         d="m 287.43828,76.091916 1.85208,0.264583 c 0.26194,-0.391319 0.26458,-0.318294 0.26458,-0.79375 0.70644,0.426244 1.30175,0.660136 2.11667,0.79375 0.32544,-0.668337 0.51858,-1.116012 0.52917,-1.852083 1.25412,-0.165894 2.19869,-0.337609 3.43958,0 -0.46037,0.293952 -0.56092,0.336021 -0.79375,0.79375 l 1.05833,-0.264584 -1.32291,0.79375 v 0.79375 c 3.94494,-0.582347 7.31308,-3.172354 11.37708,-3.175 -0.31221,-1.354931 -0.75935,-2.697691 -1.32292,-3.968749 -3.60627,1.675606 -7.3607,2.979737 -11.1125,4.314824 -1.96585,0.700088 -4.318,1.188244 -6.08541,2.299759 z"
         id="path88" />
      <path
         style="fill:#d4d4d4;stroke:none;stroke-width:0.264583"
         d="m 160.96745,70.535666 0.26458,0.264583 z"
         id="path89" />
      <path
         style="fill:#e5fffb;stroke:none;stroke-width:0.264583"
         d="m 167.58203,70.535666 v 1.058333 c 0.74745,-0.161925 1.2028,-0.392377 1.5875,-1.058333 z"
         id="path90" />
      <path
         style="fill:#a9163b;stroke:none;stroke-width:0.264583"
         d="m 171.55078,70.535666 -0.26458,0.529167 h 0.52916 c 0,-0.490273 0.0794,-0.357188 -0.26458,-0.529167 z"
         id="path91" />
      <path
         style="fill:#d60e42;stroke:none;stroke-width:0.264583"
         d="m 171.81536,70.535666 v 0.529167 h 0.52917 v -0.529167 z"
         id="path92" />
      <path
         style="fill:#fe003e;stroke:none;stroke-width:0.264583"
         d="m 168.1112,73.710666 v -1.058334 c -2.02063,0.997744 -2.64901,3.485357 -2.64584,5.55625 0.007,4.244446 4.06771,7.86474 8.42169,7.075223 3.88382,-0.704585 6.62305,-4.256616 5.93408,-8.157104 -0.34238,-1.938073 -0.94827,-3.559969 -2.97868,-4.209785 0.26088,-0.391319 0.26458,-0.318294 0.26458,-0.79375 -1.9894,-1.117071 -3.38032,-1.53035 -5.5798,-1.126596 -0.61357,0.112448 -1.34011,-0.0037 -1.85764,0.416983 -0.71226,0.57838 -0.82523,1.651265 -1.55839,2.297113 z"
         id="path93" />
      <path
         style="fill:#764245;stroke:none;stroke-width:0.264583"
         d="m 170.22786,70.800249 0.26459,0.264584 z"
         id="path94" />
      <path
         style="fill:#421311;stroke:none;stroke-width:0.264583"
         d="m 170.49245,70.800249 0.26458,0.264584 z"
         id="path95" />
      <path
         style="fill:#751726;stroke:none;stroke-width:0.264583"
         d="m 170.93351,70.888355 c -0.11774,0.11774 0.16166,0.102923 0.17621,0.08837 0.11774,-0.117739 -0.16166,-0.102923 -0.17621,-0.08837 z"
         id="path96" />
      <path
         style="fill:#a50023;stroke:none;stroke-width:0.264583"
         d="m 174.10851,70.888355 c -0.11774,0.11774 0.16166,0.102923 0.17621,0.08837 0.11774,-0.117739 -0.16166,-0.102923 -0.17621,-0.08837 z"
         id="path97" />
      <path
         style="fill:#ad2449;stroke:none;stroke-width:0.264583"
         d="m 174.63767,70.888355 c -0.11774,0.11774 0.16166,0.102923 0.17622,0.08837 0.11774,-0.117739 -0.16166,-0.102923 -0.17622,-0.08837 z"
         id="path98" />
      <path
         style="fill:#531621;stroke:none;stroke-width:0.264583"
         d="m 174.99036,70.800249 0.26459,0.264584 z"
         id="path99" />
      <path
         style="fill:#ab1037;stroke:none;stroke-width:0.264583"
         d="m 175.51953,71.064833 v 0.529166 h 0.52917 c -0.1442,-0.432594 -0.0966,-0.384969 -0.52917,-0.529166 z"
         id="path100" />
      <path
         style="fill:#333333;stroke:none;stroke-width:0.264583"
         d="m 42.169531,71.329416 0.264584,0.264583 z"
         id="path101" />
      <path
         style="fill:#812d3c;stroke:none;stroke-width:0.264583"
         d="m 169.34601,71.417522 c -0.11774,0.11774 0.16166,0.102923 0.17621,0.08837 0.11774,-0.11774 -0.16166,-0.102923 -0.17621,-0.08837 z"
         id="path102" />
      <path
         style="fill:#4e151e;stroke:none;stroke-width:0.264583"
         d="m 176.0487,71.329416 0.26458,0.264583 z"
         id="path103" />
      <path
         style="fill:#f9104a;stroke:none;stroke-width:0.264583"
         d="m 168.64036,71.593999 c -0.14419,0.432594 -0.0966,0.384969 -0.52916,0.529167 v 0.529166 h 0.52916 l -0.52916,1.058334 c 0.88291,-0.515409 1.00383,-1.121569 1.05833,-2.116667 z"
         id="path104" />
      <path
         style="fill:#e60c3c;stroke:none;stroke-width:0.264583"
         d="m 172.8737,71.593999 v 0.529167 h 1.05833 v -0.529167 z"
         id="path105" />
      <path
         style="fill:#9f123a;stroke:none;stroke-width:0.264583"
         d="m 176.57786,71.593999 v 0.529167 h 0.52917 c -0.1442,-0.432594 -0.0966,-0.384969 -0.52917,-0.529167 z"
         id="path106" />
      <path
         style="fill:#63262b;stroke:none;stroke-width:0.264583"
         d="m 168.37578,71.858583 0.26458,0.264583 z"
         id="path107" />
      <path
         style="fill:#ffd2f6;stroke:none;stroke-width:0.264583"
         d="m 177.37161,71.858583 c 0.25929,0.471752 0.23998,0.421745 0.79375,0.529166 -0.30136,-0.268816 -0.42651,-0.346339 -0.79375,-0.529166 z"
         id="path108" />
      <path
         style="fill:#e6fffa;stroke:none;stroke-width:0.264583"
         d="m 166.5237,72.123166 -0.52917,1.5875 c 0.91466,-0.281517 1.23534,-0.706173 1.5875,-1.5875 z"
         id="path109" />
      <path
         style="fill:#c02943;stroke:none;stroke-width:0.264583"
         d="m 177.10703,72.123166 v 0.529166 h 0.52917 c -0.1442,-0.432593 -0.0966,-0.384968 -0.52917,-0.529166 z"
         id="path110" />
      <path
         style="fill:#ddfffb;stroke:none;stroke-width:0.264583"
         d="m 178.16536,72.123166 v 0.529166 h 0.52917 v -0.529166 z"
         id="path111" />
      <path
         style="fill:#e1e1e1;stroke:none;stroke-width:0.264583"
         d="m 50.548092,72.475855 c -0.11774,0.11774 0.16166,0.102923 0.176212,0.08837 0.11774,-0.117739 -0.16166,-0.102923 -0.176212,-0.08837 z"
         id="path112" />
      <path
         style="fill:#6e0d19;stroke:none;stroke-width:0.264583"
         d="m 167.84661,72.387749 0.26459,0.264583 z"
         id="path113" />
      <path
         style="fill:#e9ffff;stroke:none;stroke-width:0.264583"
         d="m 179.2237,72.387749 v 1.322917 h 0.52916 c -0.0802,-0.606954 -0.15319,-0.849842 -0.52916,-1.322917 z"
         id="path114" />
      <path
         style="fill:#d22954;stroke:none;stroke-width:0.264583"
         d="m 167.40555,72.82881 c -0.0146,0.01455 -0.0294,0.293952 0.0884,0.176212 0.0146,-0.01455 0.0294,-0.293952 -0.0884,-0.176212 z"
         id="path115" />
      <path
         style="fill:#b60029;stroke:none;stroke-width:0.264583"
         d="m 168.1112,72.652332 v 0.79375 c 0.31617,-0.323585 0.34819,-0.375708 0.52916,-0.79375 z"
         id="path116" />
      <path
         style="fill:#d40935;stroke:none;stroke-width:0.264583"
         d="m 176.84245,72.652332 c 0.47307,0.375973 0.71596,0.448998 1.32291,0.529167 -0.46302,-0.332052 -0.75618,-0.427037 -1.32291,-0.529167 z"
         id="path117" />
      <path
         style="fill:#8c0008;stroke:none;stroke-width:0.264583"
         d="m 177.6362,72.652332 0.26458,0.264584 z"
         id="path118" />
      <path
         style="fill:#ae001a;stroke:none;stroke-width:0.264583"
         d="m 167.05286,72.916916 0.26459,0.264583 z"
         id="path119" />
      <path
         style="fill:#cc2250;stroke:none;stroke-width:0.264583"
         d="m 178.25347,73.357976 c -0.0145,0.01455 -0.0294,0.293952 0.0884,0.176213 0.0146,-0.01455 0.0294,-0.293952 -0.0884,-0.176213 z"
         id="path120" />
      <path
         style="fill:#622931;stroke:none;stroke-width:0.264583"
         d="m 166.78828,73.446082 0.26458,0.264584 z"
         id="path121" />
      <path
         style="fill:#9b000c;stroke:none;stroke-width:0.264583"
         d="m 178.42995,73.446082 0.26458,0.264584 z"
         id="path122" />
      <path
         style="fill:#653339;stroke:none;stroke-width:0.264583"
         d="m 178.78264,73.887143 c -0.0146,0.01455 -0.0294,0.293952 0.0884,0.176212 0.0145,-0.01455 0.0294,-0.293952 -0.0884,-0.176212 z"
         id="path123" />
      <path
         style="fill:#cecece;stroke:none;stroke-width:0.264583"
         d="m 216.79453,73.710666 0.26458,0.264583 z"
         id="path124" />
      <path
         style="fill:#cbcbcb;stroke:none;stroke-width:0.264583"
         d="m 251.19036,73.710666 0.26459,0.264583 z"
         id="path125" />
      <path
         style="fill:#fafafa;stroke:none;stroke-width:0.264583"
         d="m 39.259115,73.975249 c -0.666486,1.251479 -1.21338,2.60059 -1.5875,3.96875 4.894527,0.01402 8.382529,4.513527 12.964583,5.820833 l -0.529167,-1.058333 c 0.401373,0.253206 0.618861,0.366977 1.058333,0.529167 0.06853,1.507596 1.359694,1.942306 2.645834,2.38125 -0.08202,-0.594519 -0.175684,-0.840052 -0.529167,-1.322917 h 0.529167 c -0.171979,-0.343958 -0.03889,-0.264583 -0.529167,-0.264583 0.260879,-0.391054 0.264583,-0.318294 0.264583,-0.79375 l 0.79375,0.264583 v -1.058333 c -1.63486,-0.470959 -2.805112,-1.484048 -4.237302,-2.340769 -3.507581,-2.098675 -7.004579,-4.672806 -10.843947,-6.125898 m 252.941665,0.529167 c -0.0582,0.666485 -0.30692,1.219729 -0.52917,1.852083 l -2.11667,-0.79375 -0.26458,0.79375 c -2.45533,-0.634206 -4.55083,0.771261 -6.87917,1.322917 0.61913,2.617787 1.86532,5.013854 2.38125,7.672916 1.36261,-0.201348 2.62996,-0.748506 3.96875,-1.058333 -0.74347,-1.590675 -1.55045,-3.089275 -2.11666,-4.7625 1.9976,-0.299244 3.92377,-1.254125 5.82083,-1.933575 1.04511,-0.37465 2.05581,-0.538956 2.11667,-1.770592 l 1.32291,-0.529166 c -0.47889,-0.151871 -0.54768,-0.123031 -1.05833,0 l 0.79375,-0.79375 c -1.22767,-0.434181 -2.19075,-0.254265 -3.43958,0 z"
         id="path126" />
      <path
         style="fill:#bf0e40;stroke:none;stroke-width:0.264583"
         d="m 166.25911,74.239832 -0.26458,0.529167 h 0.52917 c 0,-0.490273 0.0794,-0.357187 -0.26459,-0.529167 z"
         id="path127" />
      <path
         style="fill:#ce0235;stroke:none;stroke-width:0.264583"
         d="m 178.69453,74.239832 v 0.529167 h 0.52917 v -0.529167 z"
         id="path128" />
      <path
         style="fill:#343434;stroke:none;stroke-width:0.264583"
         d="m 193.77578,74.504416 0.26458,0.264583 z"
         id="path129" />
      <path
         style="fill:#9a1937;stroke:none;stroke-width:0.264583"
         d="m 179.3118,74.945476 c -0.0146,0.01455 -0.0294,0.293952 0.0884,0.176213 0.0146,-0.01455 0.0294,-0.293952 -0.0884,-0.176213 z"
         id="path130" />
      <path
         style="fill:#181818;stroke:none;stroke-width:0.264583"
         d="m 193.33472,74.945476 c -0.0146,0.01455 -0.0294,0.293952 0.0884,0.176213 0.0145,-0.01455 0.0294,-0.293952 -0.0884,-0.176213 z"
         id="path131" />
      <path
         style="fill:#e7e7e7;stroke:none;stroke-width:0.264583"
         d="m 251.01309,74.945476 c -0.0132,0.01455 -0.0291,0.293952 0.09,0.176213 0.0132,-0.01455 0.0291,-0.293952 -0.09,-0.176213 z"
         id="path132" />
      <path
         style="fill:#592525;stroke:none;stroke-width:0.264583"
         d="m 165.72995,75.033582 0.26458,0.264584 z"
         id="path133" />
      <path
         style="fill:#e6e6e6;stroke:none;stroke-width:0.264583"
         d="m 59.984721,75.474643 c -0.01455,0.01455 -0.02937,0.293952 0.08837,0.176212 0.01455,-0.01455 0.02937,-0.293952 -0.08837,-0.176212 z"
         id="path134" />
      <path
         style="fill:#af1436;stroke:none;stroke-width:0.264583"
         d="m 165.81805,75.474643 c -0.0145,0.01455 -0.0294,0.293952 0.0884,0.176212 0.0146,-0.01455 0.0294,-0.293952 -0.0884,-0.176212 z"
         id="path135" />
      <path
         style="fill:#d4d4d4;stroke:none;stroke-width:0.264583"
         d="m 251.98411,75.562749 0.26459,0.264583 z"
         id="path136" />
      <path
         style="fill:#de113a;stroke:none;stroke-width:0.264583"
         d="m 167.58203,75.827332 v 0.529167 h 0.52917 v -0.529167 z"
         id="path137" />
      <path
         style="fill:#85122c;stroke:none;stroke-width:0.264583"
         d="m 179.75286,75.827332 v 1.058334 c 0.18786,-0.465667 0.18786,-0.592667 0,-1.058334 z"
         id="path138" />
      <path
         style="fill:#de072c;stroke:none;stroke-width:0.264583"
         d="m 178.16536,76.356499 v 0.529167 h 0.52917 v -0.529167 z"
         id="path139" />
      <path
         style="fill:#d2d2d2;stroke:none;stroke-width:0.264583"
         d="m 293.25911,76.621082 0.26458,0.264584 z"
         id="path140" />
      <path
         style="fill:#ffffff;stroke:none;stroke-width:0.264583"
         d="m 179.84097,77.062143 c -0.0145,0.01455 -0.0294,0.293952 0.0884,0.176212 0.0146,-0.01455 0.0294,-0.293952 -0.0884,-0.176212 z"
         id="path141" />
      <path
         style="fill:#7f0011;stroke:none;stroke-width:0.264583"
         d="m 180.10555,77.062143 c -0.0145,0.01455 -0.0294,0.293952 0.0884,0.176212 0.0146,-0.01455 0.0294,-0.293952 -0.0884,-0.176212 z"
         id="path142" />
      <path
         style="fill:#e1e1e1;stroke:none;stroke-width:0.264583"
         d="m 291.75892,77.062143 c -0.0132,0.01482 -0.0291,0.293687 0.09,0.176212 0.0132,-0.01455 0.0291,-0.293952 -0.09,-0.176212 z"
         id="path143" />
      <path
         style="fill:#323232;stroke:none;stroke-width:0.264583"
         d="m 156.46953,77.150249 0.26458,0.264583 z"
         id="path144" />
      <path
         style="fill:#ffecff;stroke:none;stroke-width:0.264583"
         d="m 164.40703,77.150249 -0.26458,1.852083 c 0.48948,0.05345 0.83343,0.05345 1.32291,0 -0.15134,-0.628914 -0.23574,-1.20597 -0.26458,-1.852083 z"
         id="path145" />
      <path
         style="fill:#6d5760;stroke:none;stroke-width:0.264583"
         d="m 165.20078,77.150249 0.26458,0.264583 z"
         id="path146" />
      <path
         style="fill:#e7e7e7;stroke:none;stroke-width:0.264583"
         d="m 120.13351,77.502939 c -0.11774,0.117739 0.16166,0.102923 0.17621,0.08837 0.11774,-0.11774 -0.16166,-0.102923 -0.17621,-0.08837 z"
         id="path147" />
      <path
         style="fill:#6d2640;stroke:none;stroke-width:0.264583"
         d="m 165.20078,77.414832 v 1.322917 c 0.2196,-0.537104 0.2196,-0.785812 0,-1.322917 z"
         id="path148" />
      <path
         style="fill:#e70032;stroke:none;stroke-width:0.264583"
         d="m 178.95911,77.414832 c -0.17039,0.557213 -0.23971,1.004094 -0.26458,1.5875 h 0.52917 c -0.0124,-0.596106 -0.0333,-1.044575 -0.26459,-1.5875 z"
         id="path149" />
      <path
         style="fill:#cf1b4f;stroke:none;stroke-width:0.264583"
         d="m 179.75286,77.414832 v 0.529167 h 0.52917 v -0.529167 z"
         id="path150" />
      <path
         style="fill:#ffffff;stroke:none;stroke-width:0.264583"
         d="m 150.11953,77.679416 0.26458,0.264583 -0.26458,-0.264583 m 44.80269,1.23481 c -0.0146,0.01455 -0.0294,0.293952 0.0884,0.176213 0.0145,-0.01455 0.0294,-0.293952 -0.0884,-0.176213 z"
         id="path151" />
      <path
         style="fill:#c20d3d;stroke:none;stroke-width:0.264583"
         d="m 179.84097,79.17881 c -0.0145,0.01455 -0.0294,0.293952 0.0884,0.176212 0.0146,-0.01455 0.0294,-0.293952 -0.0884,-0.176212 z"
         id="path152" />
      <path
         style="fill:#590c18;stroke:none;stroke-width:0.264583"
         d="m 179.75286,79.531499 0.26459,0.264583 z"
         id="path153" />
      <path
         style="fill:#ffffff;stroke:none;stroke-width:0.264583"
         d="m 150.38411,79.796082 v 1.058334 c 0.18786,-0.465667 0.18786,-0.592667 0,-1.058334 z"
         id="path154" />
      <path
         style="fill:#9c4759;stroke:none;stroke-width:0.264583"
         d="m 179.75286,79.796082 0.26459,0.264584 z"
         id="path155" />
      <path
         style="fill:#780f1b;stroke:none;stroke-width:0.264583"
         d="m 165.81805,80.766309 c -0.0145,0.01455 -0.0294,0.293953 0.0884,0.176213 0.0146,-0.01455 0.0294,-0.293952 -0.0884,-0.176213 z"
         id="path156" />
      <path
         style="fill:#bc1142;stroke:none;stroke-width:0.264583"
         d="m 179.2237,80.589832 v 0.529167 c 0.43259,-0.144198 0.38496,-0.09657 0.52916,-0.529167 z"
         id="path157" />
      <path
         style="fill:#6e132a;stroke:none;stroke-width:0.264583"
         d="m 179.2237,81.118999 0.26458,0.264583 z"
         id="path158" />
      <path
         style="fill:#ffffff;stroke:none;stroke-width:0.264583"
         d="m 194.65764,81.560059 c -0.0146,0.01455 -0.0294,0.293953 0.0884,0.176213 0.0145,-0.01455 0.0294,-0.293952 -0.0884,-0.176213 z"
         id="path159" />
      <path
         style="fill:#1d1d1d;stroke:none;stroke-width:0.264583"
         d="m 144.21059,81.736272 c -0.11774,0.11774 0.16166,0.102923 0.17621,0.08837 0.11774,-0.11774 -0.16166,-0.102923 -0.17621,-0.08837 z"
         id="path160" />
      <path
         style="fill:#552831;stroke:none;stroke-width:0.264583"
         d="m 166.25911,81.648166 0.26459,0.264583 z"
         id="path161" />
      <path
         style="fill:#b9163b;stroke:none;stroke-width:0.264583"
         d="m 178.69453,81.648166 v 0.529166 c 0.43259,-0.144198 0.38497,-0.09657 0.52917,-0.529166 z"
         id="path162" />
      <path
         style="fill:#b81943;stroke:none;stroke-width:0.264583"
         d="m 166.5237,82.177332 c 0.14419,0.432594 0.0966,0.384969 0.52916,0.529167 v -0.529167 z"
         id="path163" />
      <path
         style="fill:#67202d;stroke:none;stroke-width:0.264583"
         d="m 178.69453,82.177332 0.26458,0.264584 z"
         id="path164" />
      <path
         style="fill:#f3f3f3;stroke:none;stroke-width:0.264583"
         d="m 285.32161,82.177332 c -0.2831,0.957792 -0.47096,1.655234 -0.26458,2.645834 0.48154,-0.361157 0.27252,-0.394759 0.79375,-0.264584 0.23812,-0.561975 0.23283,-0.555889 0.79375,-0.79375 -0.26194,0.391055 -0.26459,0.318294 -0.26459,0.79375 0.55298,-0.159808 1.01336,-0.270668 1.5875,-0.264583 -0.62177,-1.100402 -1.89177,-0.99351 -2.64583,-2.116667 z"
         id="path165" />
      <path
         style="fill:#713c42;stroke:none;stroke-width:0.264583"
         d="m 178.16536,82.706499 0.26459,0.264583 z"
         id="path166" />
      <path
         style="fill:#90344d;stroke:none;stroke-width:0.264583"
         d="m 167.31745,83.235666 0.26458,0.264583 z"
         id="path167" />
      <path
         style="fill:#b30022;stroke:none;stroke-width:0.264583"
         d="m 177.6362,83.235666 v 0.529166 c 0.43259,-0.144198 0.38496,-0.09657 0.52916,-0.529166 z"
         id="path168" />
      <path
         style="fill:#6a2b33;stroke:none;stroke-width:0.264583"
         d="m 167.84661,83.764832 0.26459,0.264584 z"
         id="path169" />
      <path
         style="fill:#ca002f;stroke:none;stroke-width:0.264583"
         d="m 168.1112,83.764832 c 0.40825,0.335227 0.54186,0.393965 1.05833,0.529167 -0.34766,-0.428096 -0.49662,-0.44794 -1.05833,-0.529167 z"
         id="path170" />
      <path
         style="fill:#a42440;stroke:none;stroke-width:0.264583"
         d="m 177.28351,83.852939 c -0.11774,0.117739 0.16166,0.102923 0.17621,0.08837 0.11774,-0.117739 -0.16166,-0.102922 -0.17621,-0.08837 z"
         id="path171" />
      <path
         style="fill:#ffffff;stroke:none;stroke-width:0.264583"
         d="m 194.12847,83.941309 c -0.0145,0.01455 -0.0294,0.293953 0.0884,0.176213 0.0146,-0.01455 0.0294,-0.293952 -0.0884,-0.176213 z"
         id="path172" />
      <path
         style="fill:#6a373a;stroke:none;stroke-width:0.264583"
         d="m 168.90495,84.293999 0.26458,0.264583 z"
         id="path173" />
      <path
         style="fill:#bc0011;stroke:none;stroke-width:0.264583"
         d="m 169.16953,84.293999 0.26458,0.264583 z"
         id="path174" />
      <path
         style="fill:#c71e36;stroke:none;stroke-width:0.264583"
         d="m 173.93203,84.293999 v 0.529167 h 0.52917 v -0.529167 z"
         id="path175" />
      <path
         style="fill:#a4203d;stroke:none;stroke-width:0.264583"
         d="m 176.22517,84.382105 c -0.11774,0.11774 0.16166,0.102923 0.17622,0.08837 0.11774,-0.117739 -0.16166,-0.102923 -0.17622,-0.08837 z"
         id="path176" />
      <path
         style="fill:#e6feff;stroke:none;stroke-width:0.264583"
         d="m 179.75286,84.293999 v 0.529167 h 1.05834 v -0.529167 z"
         id="path177" />
      <path
         style="fill:#b6143a;stroke:none;stroke-width:0.264583"
         d="m 169.6987,84.823166 c 0.44794,0.280987 0.80433,0.402166 1.32291,0.529166 -0.47334,-0.376237 -0.71596,-0.448998 -1.32291,-0.529166 z"
         id="path178" />
      <path
         style="fill:#e51a4f;stroke:none;stroke-width:0.264583"
         d="m 170.75703,84.823166 c 0.1442,0.432593 0.0966,0.384968 0.52917,0.529166 v -0.529166 z"
         id="path179" />
      <path
         style="fill:#bf0337;stroke:none;stroke-width:0.264583"
         d="m 174.4612,84.823166 v 0.529166 c 0.43259,-0.144198 0.38496,-0.09657 0.52916,-0.529166 z"
         id="path180" />
      <path
         style="fill:#830d2b;stroke:none;stroke-width:0.264583"
         d="m 175.16684,84.911272 c -0.11774,0.11774 0.16166,0.102923 0.17621,0.08837 0.11774,-0.11774 -0.16166,-0.102923 -0.17621,-0.08837 z"
         id="path181" />
      <path
         style="fill:#ffe4ff;stroke:none;stroke-width:0.264583"
         d="m 171.81536,85.616916 c 1.11549,0.468048 2.5027,0.264583 3.70417,0.264583 v -0.79375 c -1.27,0.215106 -2.39951,0.525463 -3.70417,0.529167 z"
         id="path182" />
      <path
         style="fill:#9e1634;stroke:none;stroke-width:0.264583"
         d="m 171.2862,85.352332 c 0.90805,0.381 1.93145,0.264584 2.91041,0.264584 -0.90805,-0.381 -1.93146,-0.264584 -2.91041,-0.264584 z"
         id="path183" />
      <path
         style="fill:#e9fffd;stroke:none;stroke-width:0.264583"
         d="m 175.25495,85.352332 0.26458,0.529167 c -0.49689,0.04657 -0.84667,0.115887 -1.32292,0.264583 0.67654,0.283898 1.36816,0.191823 2.07063,0.389996 0.67416,0.189971 1.25677,0.65749 1.89812,0.932921 v -1.058333 l -1.05833,0.264583 v -1.322917 z"
         id="path184" />
      <path
         style="fill:#d3d3d3;stroke:none;stroke-width:0.264583"
         d="m 55.398698,85.881499 0.264583,0.264583 z"
         id="path185" />
      <path
         style="fill:#edffff;stroke:none;stroke-width:0.264583"
         d="m 170.75703,86.675249 c 0.34951,1.639623 3.88673,1.852083 5.29167,1.852083 -0.74719,-1.425046 -3.77005,-1.563687 -5.29167,-1.852083 z"
         id="path186" />
      <path
         style="fill:#e7e7e7;stroke:none;stroke-width:0.264583"
         d="m 31.145138,87.645476 c -0.01455,0.01455 -0.02937,0.293952 0.08837,0.176213 0.01455,-0.01455 0.02937,-0.293953 -0.08837,-0.176213 z"
         id="path187" />
      <path
         style="fill:#d4d4d4;stroke:none;stroke-width:0.264583"
         d="m 29.998698,88.262749 0.264583,0.264583 z"
         id="path188" />
      <path
         style="fill:#ffffff;stroke:none;stroke-width:0.264583"
         d="m 222.87995,89.321082 c 0.14552,0.432594 0.0952,0.384969 0.52916,0.529167 -0.14552,-0.432594 -0.0952,-0.384969 -0.52916,-0.529167 m 0.79375,0.529167 c 0.14552,0.432594 0.0952,0.384969 0.52916,0.529167 -0.14287,-0.432594 -0.0952,-0.384969 -0.52916,-0.529167 m 0.79375,0.529167 0.26458,0.264583 -0.26458,-0.264583 m 0.79375,0.529166 0.26458,0.264584 z"
         id="path189" />
      <path
         style="fill:#181818;stroke:none;stroke-width:0.264583"
         d="m 22.678471,93.995476 c -0.01455,0.01455 -0.02937,0.293952 0.08837,0.176212 0.01455,-0.01455 0.02937,-0.293952 -0.08837,-0.176212 z"
         id="path190" />
      <path
         style="fill:#2e2e2e;stroke:none;stroke-width:0.264583"
         d="m 17.034115,94.348166 0.264583,0.264583 z"
         id="path191" />
      <path
         style="fill:#2b2b2b;stroke:none;stroke-width:0.264583"
         d="m 21.532031,94.612749 0.264584,0.264583 z"
         id="path192" />
      <path
         style="fill:#343434;stroke:none;stroke-width:0.264583"
         d="m 16.240365,95.671082 0.264583,0.264584 z"
         id="path193" />
      <path
         style="fill:#313131;stroke:none;stroke-width:0.264583"
         d="m 328.97786,95.671082 0.26458,0.264584 z"
         id="path194" />
      <path
         style="fill:#181818;stroke:none;stroke-width:0.264583"
         d="m 16.857638,96.112143 c -0.01455,0.01455 -0.02937,0.293952 0.08837,0.176212 0.01455,-0.01455 0.02937,-0.293952 -0.08837,-0.176212 z"
         id="path195" />
      <path
         style="fill:#1c1c1c;stroke:none;stroke-width:0.264583"
         d="m 329.59434,98.757976 c -0.0132,0.01482 -0.0291,0.293687 0.09,0.176212 0.0132,-0.01455 0.0291,-0.293952 -0.09,-0.176212 z"
         id="path196" />
      <path
         style="fill:#e0e0e0;stroke:none;stroke-width:0.264583"
         d="m 182.31059,98.934188 c -0.11774,0.11774 0.16166,0.102923 0.17621,0.08837 0.11774,-0.117739 -0.16166,-0.102923 -0.17621,-0.08837 z"
         id="path197" />
      <path
         style="fill:#cecece;stroke:none;stroke-width:0.264583"
         d="m 284.52786,99.904415 0.26458,0.264585 z"
         id="path198" />
      <path
         style="fill:#e3e3e3;stroke:none;stroke-width:0.264583"
         d="m 22.413888,100.87464 c -0.01455,0.0145 -0.02937,0.29395 0.08837,0.17622 0.01455,-0.0146 0.02937,-0.29396 -0.08837,-0.17622 z"
         id="path199" />
      <path
         style="fill:#e6e6e6;stroke:none;stroke-width:0.264583"
         d="m 60.337675,103.43211 c -0.11774,0.11773 0.16166,0.10292 0.176212,0.0884 0.11774,-0.11774 -0.16166,-0.10293 -0.176212,-0.0884 z"
         id="path200" />
      <path
         style="fill:#e3e3e3;stroke:none;stroke-width:0.264583"
         d="m 323.24434,105.10798 c -0.0132,0.0145 -0.0291,0.29395 0.09,0.17621 0.0132,-0.0145 0.0291,-0.29395 -0.09,-0.17621 z"
         id="path201" />
      <path
         style="fill:#2b2b2b;stroke:none;stroke-width:0.264583"
         d="m 115.45911,106.519 0.26459,0.26458 z"
         id="path202" />
      <path
         style="fill:#1c1c1c;stroke:none;stroke-width:0.264583"
         d="m 28.763888,107.22464 c -0.01455,0.0145 -0.02937,0.29395 0.08837,0.17621 0.01455,-0.0145 0.02937,-0.29395 -0.08837,-0.17621 z"
         id="path203" />
      <path
         style="fill:#343434;stroke:none;stroke-width:0.264583"
         d="m 96.673697,107.57733 0.264584,0.26459 -0.264584,-0.26459 m -67.733332,0.79375 0.264583,0.26459 z"
         id="path204" />
      <path
         style="fill:#191919;stroke:none;stroke-width:0.264583"
         d="m 286.8218,108.45919 c -0.11906,0.11747 0.16139,0.10292 0.17462,0.0884 0.11907,-0.11774 -0.16139,-0.10292 -0.17462,-0.0884 z"
         id="path205" />
      <path
         style="fill:#181818;stroke:none;stroke-width:0.264583"
         d="m 29.557638,108.81214 c -0.01455,0.0145 -0.02937,0.29395 0.08837,0.17621 0.01455,-0.0145 0.02937,-0.29395 -0.08837,-0.17621 z"
         id="path206" />
      <path
         style="fill:#2b2b2b;stroke:none;stroke-width:0.264583"
         d="m 315.74869,108.63567 0.26459,0.26458 z"
         id="path207" />
      <path
         style="fill:#2e2e2e;stroke:none;stroke-width:0.264583"
         d="m 57.515364,108.90025 0.264584,0.26458 z"
         id="path208" />
      <path
         style="fill:#181818;stroke:none;stroke-width:0.264583"
         d="m 286.99642,113.04548 c -0.0132,0.0145 -0.0291,0.29368 0.09,0.17621 0.0132,-0.0145 0.0291,-0.29395 -0.09,-0.17621 z"
         id="path209" />
      <path
         style="fill:#2e2e2e;stroke:none;stroke-width:0.264583"
         d="m 308.86953,112.869 0.26458,0.26458 z"
         id="path210" />
      <path
         style="fill:#fafafa;stroke:none;stroke-width:0.264583"
         d="m 302.78411,113.51061 c -0.70114,0.0955 -1.47637,0.1405 -2.11667,0.46382 -3.16441,1.59967 -2.91041,5.1734 -2.91041,8.15499 0,2.13571 -0.0529,4.20819 1.31498,6.00604 1.9685,2.58683 6.33941,2.50084 9.26835,2.11957 2.6035,-0.33919 4.85511,-1.67666 5.45306,-4.42145 0.24342,-1.11813 0.045,-2.30505 0.17992,-3.43958 0.27781,-2.35453 0.508,-4.79478 -1.016,-6.79953 -2.13519,-2.81093 -7.03262,-2.51248 -10.17323,-2.08386 z"
         id="path211" />
      <path
         style="fill:#2b2b2b;stroke:none;stroke-width:0.264583"
         d="m 287.96744,113.66275 0.26459,0.26458 z"
         id="path212" />
      <path
         style="fill:#e7e7e7;stroke:none;stroke-width:0.264583"
         d="m 58.750175,114.01544 c -0.11774,0.11774 0.16166,0.10292 0.176212,0.0884 0.11774,-0.11774 -0.16166,-0.10292 -0.176212,-0.0884 z"
         id="path213" />
      <path
         style="fill:#fafafa;stroke:none;stroke-width:0.264583"
         d="m 290.61328,116.30858 c 0.96837,3.44435 0.71437,7.38161 0,10.84792 h 4.23333 c -0.71437,-3.46631 -0.96837,-7.40357 0,-10.84792 z"
         id="path214" />
      <path
         style="fill:#000000;stroke:none;stroke-width:0.264583"
         d="m 302.30522,117.03407 c -0.68528,0.30401 -0.97896,0.94932 -1.07421,1.65682 -0.23284,1.76662 -0.635,5.83909 0.49741,7.30303 1.11125,1.43748 3.96346,0.9062 5.55361,0.89773 0.70114,-0.004 1.44462,0.0228 2.10079,-0.2667 2.05581,-0.90646 1.4896,-5.31971 1.26206,-7.14137 -0.082,-0.65669 -0.15346,-1.48458 -0.61119,-2.00184 -0.43391,-0.49159 -1.07156,-0.59346 -1.69333,-0.63235 -1.64835,-0.10319 -4.51114,-0.4908 -6.03514,0.18468 z"
         id="path215" />
      <path
         style="fill:#fafafa;stroke:none;stroke-width:0.264583"
         d="m 28.146615,118.16067 c -0.647965,0.92498 -0.590021,2.07724 -0.79375,3.175 h 15.08125 c 2.505604,0 5.17472,-0.26327 7.662597,0.0341 1.681427,0.20108 2.840567,1.69942 4.508236,1.81795 l 0.529166,2.38125 c 0.914136,0.003 1.754717,0.0524 2.645834,0.26458 l 0.264583,-0.26458 c -0.550333,-1.47347 -1.04431,-2.43708 -2.032265,-3.63749 -0.512497,-0.62257 -0.51435,-1.45997 -1.407318,-1.12501 -0.555096,-0.85699 -1.429544,-0.82815 -2.38125,-1.05833 -0.323586,0.31617 -0.375709,0.34819 -0.79375,0.52916 v -1.5875 c -2.043642,-0.48657 -4.259792,-0.26458 -6.35,-0.26458 H 34.496615 c -1.912673,0 -4.588669,0.51858 -6.35,-0.26458 z"
         id="path216" />
      <path
         style="fill:#d2d2d2;stroke:none;stroke-width:0.264583"
         d="m 28.675781,118.16067 0.264584,0.26458 z"
         id="path217" />
      <path
         style="fill:#2f2f2f;stroke:none;stroke-width:0.264583"
         d="m 309.92786,118.95442 0.26458,0.26458 z"
         id="path218" />
      <path
         style="fill:#e6e6e6;stroke:none;stroke-width:0.264583"
         d="m 51.518054,119.92464 c -0.01455,0.0145 -0.02937,0.29395 0.08837,0.17621 0.01455,-0.0145 0.02937,-0.29395 -0.08837,-0.17621 z"
         id="path219" />
      <path
         style="fill:#e3e3e3;stroke:none;stroke-width:0.264583"
         d="m 58.397221,119.92464 c -0.01455,0.0145 -0.02937,0.29395 0.08837,0.17621 0.01455,-0.0145 0.02937,-0.29395 -0.08837,-0.17621 z"
         id="path220" />
      <path
         style="fill:#181818;stroke:none;stroke-width:0.264583"
         d="m 287.35097,124.59877 c -0.11907,0.11748 0.16139,0.10319 0.17462,0.0884 0.11906,-0.11774 -0.1614,-0.10292 -0.17462,-0.0884 z"
         id="path221" />
      <path
         style="fill:#343434;stroke:none;stroke-width:0.264583"
         d="m 173.40286,126.09817 0.26459,0.26458 z"
         id="path222" />
      <path
         style="fill:#dedede;stroke:none;stroke-width:0.264583"
         d="m 301.28392,126.27464 c -0.0132,0.0145 -0.0291,0.29395 0.09,0.17621 0.0132,-0.0145 0.0291,-0.29395 -0.09,-0.17621 z"
         id="path223" />
      <path
         style="fill:#1c1c1c;stroke:none;stroke-width:0.264583"
         d="m 286.99642,130.50798 c -0.0132,0.0145 -0.0291,0.29395 0.09,0.17621 0.0132,-0.0146 0.0291,-0.29395 -0.09,-0.17621 z"
         id="path224" />
      <path
         style="fill:#2e2e2e;stroke:none;stroke-width:0.264583"
         d="m 303.31328,130.59608 0.26458,0.26459 z"
         id="path225" />
      <path
         style="fill:#2f2f2f;stroke:none;stroke-width:0.264583"
         d="m 131.06953,134.03567 0.26458,0.26458 z"
         id="path226" />
      <path
         style="fill:#cdcdcd;stroke:none;stroke-width:0.264583"
         d="m 128.95286,134.82942 0.26459,0.26458 z"
         id="path227" />
      <path
         style="fill:#313131;stroke:none;stroke-width:0.264583"
         d="m 14.388282,135.094 0.264583,0.26458 z"
         id="path228" />
      <path
         style="fill:#cbcbcb;stroke:none;stroke-width:0.264583"
         d="m 322.89244,137.21067 0.26459,0.26458 z"
         id="path229" />
      <path
         style="fill:#cecece;stroke:none;stroke-width:0.264583"
         d="m 317.07161,138.00442 0.26458,0.26458 z"
         id="path230" />
      <path
         style="fill:#313131;stroke:none;stroke-width:0.264583"
         d="m 29.204948,139.32733 0.264583,0.26458 z"
         id="path231" />
      <path
         style="fill:#cbcbcb;stroke:none;stroke-width:0.264583"
         d="m 284.79244,139.32733 0.26459,0.26458 z"
         id="path232" />
      <path
         style="fill:#e6e6e6;stroke:none;stroke-width:0.264583"
         d="m 331.2718,139.41544 c -0.11906,0.11774 0.16139,0.10292 0.17462,0.0884 0.11907,-0.11774 -0.16139,-0.10292 -0.17462,-0.0884 z"
         id="path233" />
      <path
         style="fill:#e3e3e3;stroke:none;stroke-width:0.264583"
         d="m 316.62976,141.09131 c -0.0132,0.0148 -0.0291,0.29369 0.09,0.17621 0.0132,-0.0145 0.0291,-0.29395 -0.09,-0.17621 z"
         id="path234" />
      <path
         style="fill:#cbcbcb;stroke:none;stroke-width:0.264583"
         d="m 22.590365,141.444 0.264583,0.26458 z"
         id="path235" />
      <path
         style="fill:#cecece;stroke:none;stroke-width:0.264583"
         d="m 322.62786,141.444 0.26458,0.26458 z"
         id="path236" />
      <path
         style="fill:#343434;stroke:none;stroke-width:0.264583"
         d="m 329.24244,143.56066 0.26459,0.26459 z"
         id="path237" />
      <path
         style="fill:#cdcdcd;stroke:none;stroke-width:0.264583"
         d="m 105.66953,144.619 0.26458,0.26458 z"
         id="path238" />
      <path
         style="fill:#000000;stroke:none;stroke-width:0.264583"
         d="m 91.382031,147.00025 c 2.115079,4.76594 8.896089,2.4884 12.699999,1.5875 -0.71332,0.93556 -1.50574,2.01374 -2.64583,2.44951 -1.24275,0.47493 -2.683142,0.081 -3.968753,0.4609 v 0.52917 c 1.423723,0.82788 2.948783,1.32847 4.233333,2.38125 -3.087158,0.0257 -5.877454,1.26868 -8.995833,1.11363 -0.669131,-0.0333 -2.472266,-0.0283 -2.690283,0.81836 -0.28284,1.09802 1.410494,1.73408 2.161117,2.0193 2.727854,1.03717 5.692245,-0.15346 8.466669,-0.51171 -2.14789,3.98093 -6.724388,5.88566 -9.789586,8.99584 1.421077,-0.0328 2.532856,-1.09458 3.704167,-1.83806 2.531268,-1.60602 5.097727,-3.57638 8.202079,-3.71819 -0.13149,0.7411 0.0368,1.91558 -0.3167,2.56169 -0.56145,1.02685 -2.911477,0.58076 -3.916629,0.87789 1.008856,0.839 2.497399,1.58221 3.704169,2.11667 -0.32835,0.76941 0.19976,2.13042 -0.38391,2.66224 -0.53631,0.48895 -1.58036,0.54186 -2.261926,0.66516 -1.882511,0.34025 -3.906838,0.78475 -5.820833,0.8374 -0.969434,0.0265 -2.239963,-0.46328 -3.062023,0.29528 -0.994569,0.91784 0.795602,1.93807 1.474787,2.28177 2.145242,1.08611 4.121415,0.31459 6.349736,0.13731 -1.197505,1.20095 -2.259278,2.67177 -3.705225,3.58035 -2.068248,1.29989 -4.941888,2.01427 -6.084359,4.35715 1.060979,-0.0463 2.11455,-0.39264 3.175,-0.32041 1.39065,0.0945 2.870465,0.6612 4.233334,0.0722 1.135591,-0.49081 1.874572,-1.51845 2.690812,-2.39395 1.256507,-1.34806 2.711447,-2.88529 4.188357,-3.97246 10e-4,1.47691 0.63526,3.59648 -0.79375,4.49792 0.55906,1.47479 3.38508,5.21732 4.97946,2.58551 0.69585,-1.14882 0.0127,-3.2057 -0.21696,-4.4376 1.20967,0.46858 2.08227,1.35388 3.175,2.03121 2.19683,1.36155 4.52014,2.74558 6.87916,3.80127 1.17475,0.52573 3.22686,1.35043 4.45876,0.65749 1.03452,-0.58208 1.18084,-2.86808 0.15452,-3.56182 -0.55298,-0.37359 -1.35282,-0.0545 -1.96744,-0.0905 -0.84667,-0.0495 -1.62984,-0.42704 -2.38125,-0.78925 -1.59068,-0.76703 -3.32291,-1.49119 -4.7625,-2.52175 -1.92617,-1.37874 -3.08531,-2.89612 -5.55625,-3.23082 v -1.05834 c 3.16574,0 6.68681,0.0577 9.78561,-0.65669 1.78806,-0.41222 1.57427,-2.21456 -0.007,-2.85115 -1.93861,-0.78026 -5.32289,-0.27676 -7.39775,-0.186 -1.52189,0.0667 -2.59001,0.45826 -3.70417,-0.80407 l 1.05833,-0.26459 c -0.26458,-1.60443 0.50271,-2.94296 0.39635,-4.49791 -0.0773,-1.12739 -0.81227,-2.13492 -1.1901,-3.175 2.286,-0.65855 4.16931,-2.1799 6.35,-3.08293 1.24593,-0.51593 2.79691,-0.43074 3.93886,-1.17395 1.07579,-0.70036 1.01467,-1.95501 -0.006,-2.69055 -2.19287,-1.58142 -5.73008,-0.21722 -8.16663,-0.21193 -1.63777,0.004 -3.18108,-1.23243 -4.49792,-2.10106 1.38616,-0.50906 2.89798,-0.68421 4.23334,-1.31868 1.24777,-0.59267 2.42199,-1.27424 3.7039,-1.8034 0.4998,-0.20638 1.29275,-0.41566 1.5412,-0.957 0.28548,-0.6223 -0.30401,-1.22132 -0.7628,-1.55575 -1.10754,-0.80698 -2.64715,-0.78105 -3.95314,-0.69162 -5.74013,0.39317 -11.138425,2.09312 -16.933329,2.09312 z"
         id="path239" />
      <path
         style="fill:#ffffff;stroke:none;stroke-width:0.264583"
         d="m 110.69661,145.14816 0.26459,0.26459 z"
         id="path240" />
      <path
         style="fill:#cecece;stroke:none;stroke-width:0.264583"
         d="m 22.854948,145.67733 0.264583,0.26458 z"
         id="path241" />
      <path
         style="fill:#ffffff;stroke:none;stroke-width:0.264583"
         d="m 98.261197,146.73566 0.264584,0.26459 z"
         id="path242" />
      <path
         style="fill:#000000;stroke:none;stroke-width:0.264583"
         d="m 248.27995,155.7315 c 1.00277,-0.47387 1.88912,-1.16655 2.91041,-1.59941 1.58221,-0.67098 3.53219,-0.75803 4.53496,-2.38072 0.97102,-1.57374 -0.26458,-2.73764 -1.62454,-3.36523 -0.54504,-0.25083 -1.37583,-0.70803 -1.95792,-0.30877 -0.59002,0.40428 -0.72496,1.73355 -1.02129,2.36246 -0.86254,1.81451 -2.0664,3.43667 -2.84162,5.29167 z"
         id="path243" />
      <path
         style="fill:#181818;stroke:none;stroke-width:0.264583"
         d="m 107.16892,148.94044 c -0.11774,0.11774 0.16166,0.10292 0.17622,0.0884 0.11774,-0.11774 -0.16166,-0.10292 -0.17622,-0.0884 z"
         id="path244" />
      <path
         style="fill:#2b2b2b;stroke:none;stroke-width:0.264583"
         d="m 150.38411,148.85233 0.26459,0.26458 z"
         id="path245" />
      <path
         style="fill:#ffffff;stroke:none;stroke-width:0.264583"
         d="m 255.15911,149.11691 0.26459,0.26459 z"
         id="path246" />
      <path
         style="fill:#343434;stroke:none;stroke-width:0.264583"
         d="m 149.59036,150.70441 0.26459,0.26459 z"
         id="path247" />
      <path
         style="fill:#181818;stroke:none;stroke-width:0.264583"
         d="m 150.20764,151.14548 c -0.0146,0.0146 -0.0294,0.29395 0.0884,0.17621 0.0146,-0.0145 0.0294,-0.29395 -0.0884,-0.17621 z"
         id="path248" />
      <path
         style="fill:#cecece;stroke:none;stroke-width:0.264583"
         d="m 240.60703,150.969 0.26458,0.26458 z"
         id="path249" />
      <path
         style="fill:#000000;stroke:none;stroke-width:0.264583"
         d="m 241.40078,150.969 c 0.77787,1.85684 1.96056,3.92562 3.96875,4.6347 0.65617,0.23151 1.92352,0.59532 2.33892,-0.22198 0.32279,-0.63791 -0.23813,-1.50072 -0.57415,-2.02009 -1.16946,-1.80552 -3.72269,-2.30611 -5.73352,-2.39263 m -12.96458,1.32291 c 0.6006,3.09642 4.45293,5.22844 7.40833,5.29167 -0.381,-2.85406 -4.72546,-5.22869 -7.40833,-5.29167 z"
         id="path250" />
      <path
         style="fill:#ffffff;stroke:none;stroke-width:0.264583"
         d="m 105.14036,152.5565 0.26459,0.26458 -0.26459,-0.26458 m 148.96042,0 0.26458,0.26458 -0.26458,-0.26458 m -148.43125,0.26458 c 0.1442,0.4326 0.0966,0.38497 0.52917,0.52917 -0.1442,-0.4326 -0.0966,-0.38497 -0.52917,-0.52917 m 140.75833,0 0.26459,0.26458 -0.26459,-0.26458 m -15.61041,0.26458 0.26458,0.26459 -0.26458,-0.26459 m -115.35834,0.26459 0.26459,0.26458 -0.26459,-0.26458 m 115.8875,0 0.26459,0.26458 -0.26459,-0.26458 m 15.34584,0 0.26458,0.26458 z"
         id="path251" />
      <path
         style="fill:#343434;stroke:none;stroke-width:0.264583"
         d="m 114.1362,153.61483 0.26458,0.26458 z"
         id="path252" />
      <path
         style="fill:#ffffff;stroke:none;stroke-width:0.264583"
         d="m 116.25286,153.87941 c 0.1442,0.4326 0.0966,0.38497 0.52917,0.52917 -0.1442,-0.43259 -0.0966,-0.38497 -0.52917,-0.52917 z"
         id="path253" />
      <path
         style="fill:#000000;stroke:none;stroke-width:0.264583"
         d="m 238.49036,157.319 c 0.51065,2.47623 3.69359,3.19061 5.82084,3.70416 -0.97632,1.5285 -2.28865,3.2938 0.26458,3.70417 -1.04775,0.30983 -2.08756,0.26458 -3.175,0.26458 0.72231,2.03465 1.1086,3.63459 1.05569,5.82084 -0.037,1.4986 -0.6059,2.95777 0.59266,4.1738 1.45521,1.47743 3.65125,0.99827 5.4954,0.77761 1.6801,-0.20082 4.93712,0.41487 6.21506,-0.85407 0.7964,-0.79058 0.91017,-2.28918 1.31233,-3.30359 1.29117,-3.27025 3.14061,-8.29734 -1.44197,-9.73111 -0.59796,-0.18733 -1.22238,-0.30454 -1.85209,-0.28893 -2.79135,0.0688 -5.72294,1.28588 -8.46666,1.81795 1.46314,-1.41763 2.80458,-1.37292 4.46881,-2.268 0.76729,-0.41196 1.01335,-1.24381 1.68804,-1.73885 0.9525,-0.69638 2.51354,-0.75882 3.63273,-1.06018 1.02923,-0.27728 4.11427,-0.40719 4.40796,-1.58538 0.58208,-2.3167 -3.15913,-1.85288 -4.40796,-1.65815 -5.03502,0.78476 -10.54894,3.2684 -15.61042,2.22515 z"
         id="path254" />
      <path
         style="fill:#181818;stroke:none;stroke-width:0.264583"
         d="m 115.63559,155.29044 c -0.11774,0.11774 0.16166,0.10292 0.17621,0.0884 0.11774,-0.11774 -0.16166,-0.10292 -0.17621,-0.0884 z"
         id="path255" />
      <path
         style="fill:#ffffff;stroke:none;stroke-width:0.264583"
         d="m 234.25703,155.20233 0.26458,0.26458 -0.26458,-0.26458 m 20.10833,0 0.26459,0.26458 z"
         id="path256" />
      <path
         style="fill:#2e2e2e;stroke:none;stroke-width:0.264583"
         d="m 255.15911,155.20233 0.26459,0.26458 z"
         id="path257" />
      <path
         style="fill:#ffffff;stroke:none;stroke-width:0.264583"
         d="m 257.27578,155.20233 0.26458,0.26458 z"
         id="path258" />
      <path
         style="fill:#d1d1d1;stroke:none;stroke-width:0.264583"
         d="m 25.500781,155.46691 0.264584,0.26459 z"
         id="path259" />
      <path
         style="fill:#ffffff;stroke:none;stroke-width:0.264583"
         d="m 258.06953,155.46691 0.26458,0.26459 -0.26458,-0.26459 M 92.881424,155.8196 c -0.117739,0.11774 0.161661,0.10293 0.176213,0.0884 0.117739,-0.11774 -0.161661,-0.10293 -0.176213,-0.0884 m 11.729776,2.29315 c 0.82073,0 0.52916,0.89085 0.52916,1.5875 1.02897,-0.78925 1.74123,-1.78726 2.38125,-2.91042 -1.23825,0.0566 -2.21324,0.23892 -2.91041,1.32292 m 139.43541,-0.79375 0.26459,0.26458 -0.26459,-0.26458 m -111.65416,70.90833 c 1.12342,0.4736 2.03544,1.2991 3.175,1.75154 3.14245,1.24354 6.52012,2.01877 9.78958,2.84427 8.87836,2.24896 18.07686,3.51632 27.25208,3.51632 5.92614,0 11.84752,-0.75142 17.72709,-1.45521 4.81488,-0.57679 9.64988,-1.78859 14.2875,-3.22527 1.14723,-0.35455 4.03383,-0.79375 4.60295,-1.95527 0.57759,-1.18005 0.15955,-3.35757 0.15955,-4.65138 0,-4.23333 -0.37571,-8.2423 -0.77391,-12.43542 -0.9697,-10.20921 -5.74331,-19.74135 -10.63995,-28.575 -3.3827,-6.10261 -7.11015,-12.32587 -11.89303,-17.4625 -2.89851,-3.11282 -6.35608,-7.09903 -10.55978,-8.35025 -1.95633,-0.58234 -4.06744,-0.381 -6.08542,-0.381 -1.4642,0 -3.08213,-0.19314 -4.49791,0.23919 -4.40558,1.34567 -6.13278,5.65653 -7.74806,9.5504 -1.61343,3.8899 -2.32357,8.19494 -3.77296,12.17083 -1.85446,5.08714 -4.78578,9.82001 -7.81632,14.2875 -5.45518,8.04148 -12.50553,16.26182 -13.92079,26.19375 -0.38444,2.69875 0.50297,5.27844 0.71438,7.9375 m 117.03314,-68.3506 c -0.0132,0.0145 -0.0291,0.29395 0.09,0.17621 0.0132,-0.0146 0.0291,-0.29395 -0.09,-0.17621 m -143.49148,1.6756 0.26459,0.26458 z"
         id="path260" />
      <path
         style="fill:#000000;stroke:none;stroke-width:0.264583"
         d="m 224.73203,161.81691 c 0.96308,2.75485 2.91571,2.46037 4.91331,3.96479 0.64823,0.48789 0.77258,1.41949 1.08744,2.11957 0.35983,0.79984 1.28587,1.55469 1.44462,2.40586 0.20638,1.10278 -1.08214,2.43734 -1.71714,3.22315 -0.68792,0.85355 -1.44992,1.65868 -2.55323,1.93411 -1.53458,0.38285 -3.19617,0.254 -4.7625,0.64002 0.53446,1.36287 1.61396,1.23773 2.91042,1.36764 2.25954,0.22595 4.66195,-0.0426 6.87916,0.43656 2.75961,0.59663 5.10117,2.5654 7.67292,3.66289 3.38667,1.44489 7.47183,2.22859 11.1125,2.65933 2.57969,0.30533 5.22023,0.12567 7.67292,-0.71941 0.66145,-0.22833 2.60879,-0.91757 1.89706,-1.96717 -0.508,-0.74851 -1.91294,-0.63791 -2.69081,-0.72126 -2.41565,-0.25876 -4.75986,-0.64293 -7.14375,-1.12024 -2.6723,-0.53473 -5.31548,-1.152 -7.9375,-1.89945 -4.05342,-1.15517 -7.65175,-2.49264 -11.90625,-2.49264 1.30704,-1.12924 2.64847,-1.95315 4.23333,-2.63366 0.61383,-0.26379 1.39171,-0.55404 1.39171,-1.34964 0.003,-1.67269 -2.49238,-2.2897 -2.29659,-3.95446 0.17727,-1.49199 3.44752,-3.25781 2.0664,-4.85801 -2.21456,-2.56858 -6.31031,0.0471 -8.83444,0.0699 -1.26206,0.0114 -2.18546,-0.89668 -3.43958,-0.76783 z"
         id="path261" />
      <path
         style="fill:#ffffff;stroke:none;stroke-width:0.264583"
         d="m 235.31536,161.81691 0.26459,0.26459 -0.26459,-0.26459 m 18.25625,0 0.26459,0.26459 -0.26459,-0.26459 m -147.37291,0.26459 0.26458,0.26458 -0.26458,-0.26458 m 119.85625,0.26458 0.26458,0.26458 -0.26458,-0.26458 m 10.31875,0 0.26458,0.26458 z"
         id="path262" />
      <path
         style="fill:#d1d1d1;stroke:none;stroke-width:0.264583"
         d="m 242.98828,162.34608 0.26458,0.26458 z"
         id="path263" />
      <path
         style="fill:#ffffff;stroke:none;stroke-width:0.264583"
         d="m 236.90286,162.61066 0.26459,0.26459 z"
         id="path264" />
      <path
         style="fill:#eeeeee;stroke:none;stroke-width:0.264583"
         d="m 277.91328,162.61066 c 0.10848,0.55378 0.0582,0.53446 0.52916,0.79375 -0.18256,-0.36724 -0.25929,-0.49238 -0.52916,-0.79375 z"
         id="path265" />
      <path
         style="fill:#ffffff;stroke:none;stroke-width:0.264583"
         d="m 244.57578,165.2565 c 0.57414,0.42254 0.93662,1.25201 1.60867,1.49939 1.24089,0.45535 2.83633,-0.54478 3.94758,-0.96282 0.4445,-0.16695 1.09273,-0.26379 1.397,-0.66886 0.36248,-0.48419 0.1905,-1.41579 0.1905,-1.98438 -2.2569,0.19844 -5.00856,1.31551 -7.14375,2.11667 m 11.90625,-2.11667 c 0.14552,0.4326 0.0952,0.38497 0.52917,0.52917 -0.14553,-0.4326 -0.0952,-0.38497 -0.52917,-0.52917 m 0.61648,0.97023 c -0.0132,0.0145 -0.0291,0.29395 0.09,0.17621 0.0132,-0.0148 0.0291,-0.29395 -0.09,-0.17621 z"
         id="path266" />
      <path
         style="fill:#d4d4d4;stroke:none;stroke-width:0.264583"
         d="m 145.09245,164.46275 0.26458,0.26458 z"
         id="path267" />
      <path
         style="fill:#ffffff;stroke:none;stroke-width:0.264583"
         d="m 236.10911,164.72733 0.26459,0.26458 z"
         id="path268" />
      <path
         style="fill:#ececec;stroke:none;stroke-width:0.264583"
         d="m 240.07786,164.72733 v 1.05833 c 0.18786,-0.4654 0.18786,-0.59293 0,-1.05833 z"
         id="path269" />
      <path
         style="fill:#2f2f2f;stroke:none;stroke-width:0.264583"
         d="m 245.36953,166.844 0.26458,0.26458 z"
         id="path270" />
      <path
         style="fill:#ffffff;stroke:none;stroke-width:0.264583"
         d="m 245.8987,168.16691 v 2.11667 c 2.19604,-0.17357 5.73087,-0.42862 5.82083,-3.175 l -5.82083,1.05833 m -139.7,-0.52916 0.26458,0.26458 z"
         id="path271" />
      <path
         style="fill:#d1d1d1;stroke:none;stroke-width:0.264583"
         d="m 258.33411,168.4315 0.26459,0.26458 -0.26459,-0.26458 m -114.82916,0.26458 0.26458,0.26458 z"
         id="path272" />
      <path
         style="fill:#2e2e2e;stroke:none;stroke-width:0.264583"
         d="m 156.20495,168.69608 0.26458,0.26458 z"
         id="path273" />
      <path
         style="fill:#eaeaea;stroke:none;stroke-width:0.264583"
         d="m 310.72161,168.96066 v 1.05834 c 0.18786,-0.4654 0.18786,-0.59293 0,-1.05834 z"
         id="path274" />
      <path
         style="fill:#ffffff;stroke:none;stroke-width:0.264583"
         d="m 105.66953,169.22525 0.26458,0.26458 -0.26458,-0.26458 m 10.84792,0.26458 0.26458,0.26458 -0.26458,-0.26458 m 119.59166,0.26458 0.26459,0.26459 z"
         id="path275" />
      <path
         style="fill:#2e2e2e;stroke:none;stroke-width:0.264583"
         d="m 154.88203,170.28358 0.26458,0.26458 z"
         id="path276" />
      <path
         style="fill:#323232;stroke:none;stroke-width:0.264583"
         d="m 97.996614,170.81275 0.264583,0.26458 z"
         id="path277" />
      <path
         style="fill:#ffffff;stroke:none;stroke-width:0.264583"
         d="m 236.90286,171.07733 0.26459,0.26458 -0.26459,-0.26458 m 0,0.52917 0.26459,0.26458 -0.26459,-0.26458 m 8.99584,0.52916 c -0.0159,0.7366 -0.0926,1.39991 -0.26459,2.11667 2.14577,-0.25109 5.73088,0.0849 5.82084,-2.64583 -1.87061,2.6e-4 -3.71475,0.18706 -5.55625,0.52916 z"
         id="path278" />
      <path
         style="fill:#2b2b2b;stroke:none;stroke-width:0.264583"
         d="m 243.51745,172.13566 0.26458,0.26459 z"
         id="path279" />
      <path
         style="fill:#ffffff;stroke:none;stroke-width:0.264583"
         d="m 254.89453,173.72316 0.26458,0.26459 z"
         id="path280" />
      <path
         style="fill:#cbcbcb;stroke:none;stroke-width:0.264583"
         d="m 228.4362,174.51691 0.26458,0.26459 z"
         id="path281" />
      <path
         style="fill:#343434;stroke:none;stroke-width:0.264583"
         d="m 253.8362,174.51691 0.26458,0.26459 z"
         id="path282" />
      <path
         style="fill:#ffffff;stroke:none;stroke-width:0.264583"
         d="m 109.90286,175.31066 c 0.1442,0.4326 0.0966,0.38497 0.52917,0.52917 -0.1442,-0.43259 -0.0966,-0.38497 -0.52917,-0.52917 m 125.14792,0.26459 0.26458,0.26458 -0.26458,-0.26458 m 1.32292,0.26458 0.26458,0.26458 -0.26458,-0.26458 m -135.20209,0.26458 0.26459,0.26459 -0.26459,-0.26459 m 9.525,0 c 0.1442,0.4326 0.0966,0.38497 0.52917,0.52917 -0.1442,-0.43259 -0.0966,-0.38497 -0.52917,-0.52917 m -10.31875,0.79375 0.26459,0.26459 -0.26459,-0.26459 m 139.17084,0 0.26458,0.26459 -0.26458,-0.26459 m 1.85208,0.52917 0.26458,0.26458 -0.26458,-0.26458 m -134.40833,2.91042 0.26458,0.26458 -0.26458,-0.26458 m 14.55208,0.26458 0.26458,0.26458 z"
         id="path283" />
      <path
         style="fill:#323232;stroke:none;stroke-width:0.264583"
         d="m 260.1862,181.39608 0.26458,0.26458 z"
         id="path284" />
      <path
         style="fill:#111111;stroke:none;stroke-width:0.264583"
         d="m 42.169531,181.66066 -0.264583,0.79375 c 0.467254,-0.25902 0.51726,-0.32332 0.264583,-0.79375 m 1.852084,4.23334 c 0.10742,0.55351 0.05741,0.53446 0.529166,0.79375 -0.182827,-0.36724 -0.26035,-0.49239 -0.529166,-0.79375 m -14.552084,2.11666 -0.264583,0.79375 c 0.467254,-0.25902 0.51726,-0.32332 0.264583,-0.79375 z"
         id="path285" />
      <path
         style="fill:#c9c9c9;stroke:none;stroke-width:0.264583"
         d="m 127.89453,188.80441 0.26458,0.26459 z"
         id="path286" />
      <path
         style="fill:#111111;stroke:none;stroke-width:0.264583"
         d="m 46.138281,190.12733 c 0.107421,0.55351 0.05741,0.53446 0.529167,0.79375 -0.182827,-0.36724 -0.260615,-0.49239 -0.529167,-0.79375 z"
         id="path287" />
      <path
         style="fill:#eeeeee;stroke:none;stroke-width:0.264583"
         d="m 317.07161,190.39191 v 0.79375 c 0.26988,-0.30162 0.34661,-0.42624 0.52917,-0.79375 z"
         id="path288" />
      <path
         style="fill:#858585;stroke:none;stroke-width:0.264583"
         d="m 132.39245,228.22733 0.26458,0.26458 z"
         id="path289" />
      <path
         style="fill:#dcdcdc;stroke:none;stroke-width:0.264583"
         d="m 132.83351,228.31464 c -0.11774,0.11907 0.16166,0.10319 0.17621,0.09 0.11774,-0.11906 -0.16166,-0.10319 -0.17621,-0.09 z"
         id="path290" />
      <path
         style="fill:#575757;stroke:none;stroke-width:0.264583"
         d="m 132.92161,228.49191 0.26459,0.26459 z"
         id="path291" />
      <path
         style="fill:#c2c2c2;stroke:none;stroke-width:0.264583"
         d="m 133.1862,228.49191 0.26458,0.26459 z"
         id="path292" />
      <path
         style="fill:#828282;stroke:none;stroke-width:0.264583"
         d="m 133.45078,228.7565 0.26458,0.26458 z"
         id="path293" />
      <path
         style="fill:#444444;stroke:none;stroke-width:0.264583"
         d="m 133.71536,229.02108 0.26459,0.26458 z"
         id="path294" />
      <path
         style="fill:#bfbfbf;stroke:none;stroke-width:0.264583"
         d="m 133.97995,229.02108 0.26458,0.26458 z"
         id="path295" />
      <path
         style="fill:#3f3f3f;stroke:none;stroke-width:0.264583"
         d="m 133.97995,229.28566 0.26458,0.26459 z"
         id="path296" />
      <path
         style="fill:#b7b7b7;stroke:none;stroke-width:0.264583"
         d="m 134.24453,229.28566 0.26458,0.26459 z"
         id="path297" />
      <path
         style="fill:#e1e1e1;stroke:none;stroke-width:0.264583"
         d="m 266.97805,232.28339 c -0.11906,0.11907 0.1614,0.10319 0.17462,0.09 0.11907,-0.11906 -0.16139,-0.10319 -0.17462,-0.09 m 16.93333,3.96875 c -0.11906,0.11907 0.1614,0.10319 0.17463,0.09 0.11906,-0.11906 -0.1614,-0.10319 -0.17463,-0.09 z"
         id="path298" />
      <path
         style="fill:#323232;stroke:none;stroke-width:0.264583"
         d="m 167.05286,236.42941 0.26459,0.26459 z"
         id="path299" />
      <path
         style="fill:#242424;stroke:none;stroke-width:0.264583"
         d="m 89.971008,257.15423 c -0.11774,0.11906 0.16166,0.10318 0.176212,0.0899 0.11774,-0.11906 -0.16166,-0.10318 -0.176212,-0.0899 z"
         id="path300" />
      <path
         style="fill:#2f2f2f;stroke:none;stroke-width:0.264583"
         d="m 156.46953,265.269 0.26458,0.26458 z"
         id="path301" />
      <path
         style="fill:#d1d1d1;stroke:none;stroke-width:0.264583"
         d="m 190.3362,266.06275 0.26458,0.26458 z"
         id="path302" />
      <path
         style="fill:#323232;stroke:none;stroke-width:0.264583"
         d="m 195.36328,272.41275 0.26458,0.26458 z"
         id="path303" />
      <path
         style="fill:#343434;stroke:none;stroke-width:0.264583"
         d="m 207.26953,276.11691 0.26458,0.26459 z"
         id="path304" />
      <path
         style="fill:#cbcbcb;stroke:none;stroke-width:0.264583"
         d="m 189.01328,280.61483 0.26458,0.26458 z"
         id="path305" />
      <path
         style="fill:#cdcdcd;stroke:none;stroke-width:0.264583"
         d="m 184.77995,280.87941 0.26458,0.26459 z"
         id="path306" />
    </g>
  </g>
</svg>
